<svg width="589" height="492" viewBox="0 0 589 492" fill="none" xmlns="http://www.w3.org/2000/svg">
<g clip-path="url(#clip0_33_66)">
<g opacity="0.41">
<path d="M588.704 313.997C589.259 304.382 589.018 294.73 587.927 285.152C582.84 240.203 559.775 197.824 525.814 167.926C513.699 157.257 499.918 147.698 492.039 133.627C478.758 109.904 479.775 82.6685 463.294 59.2417C446.795 35.7964 422.767 17.5283 395.669 8.13542C314.856 -19.8584 201.71 25.7194 211.902 123.051C211.939 123.402 211.976 123.901 212.013 124.548C213.363 144.758 197.492 161.769 177.294 162.249C102.732 164.024 38.5477 221.491 24.8044 294.286C15.9814 341.103 30.4275 392.413 64.684 425.528C90.2468 450.249 124.559 463.821 158.889 473.159C227.717 491.87 300.151 495.79 371.105 488.635C437.528 481.941 507.613 462.841 550.563 411.753C573.499 384.518 586.632 349.571 588.704 313.997Z" fill="#C5D9FF"/>
</g>
<g opacity="0.88">
<path d="M527.386 318.582C527.83 311.057 527.627 303.476 526.776 295.988C522.781 260.783 504.709 227.575 478.129 204.166C468.64 195.809 457.838 188.32 451.678 177.3C441.283 158.718 442.06 137.38 429.167 119.038C416.238 100.678 397.427 86.3481 376.192 79.0076C312.877 57.0784 224.239 92.7826 232.23 169.035C232.267 169.313 232.285 169.701 232.322 170.219C233.377 186.065 220.947 199.377 205.113 199.747C146.7 201.134 96.4248 246.157 85.6596 303.18C78.7417 339.846 90.0619 380.043 116.901 406.003C136.933 425.362 163.809 436.012 190.704 443.316C244.623 457.978 301.353 461.048 356.955 455.445C408.987 450.194 463.886 435.236 497.532 395.223C515.474 373.83 525.759 346.447 527.386 318.582Z" fill="#C5D9FF"/>
</g>
<path opacity="0.31" d="M572.202 76.8206C574.525 67.0237 568.464 57.1987 558.664 54.8759C548.863 52.553 539.034 58.6119 536.71 68.4088C534.387 78.2057 540.448 88.0308 550.249 90.3536C560.049 92.6765 569.878 86.6175 572.202 76.8206Z" fill="#C5D9FF"/>
<path opacity="0.31" d="M168.892 66.4046C177.149 58.1513 177.149 44.7701 168.892 36.5168C160.636 28.2635 147.249 28.2635 138.993 36.5168C130.737 44.7701 130.737 58.1513 138.993 66.4046C147.249 74.6579 160.636 74.6579 168.892 66.4046Z" fill="#C5D9FF"/>
<path opacity="0.31" d="M27.3016 484.789C42.3798 484.789 54.6031 472.57 54.6031 457.498C54.6031 442.425 42.3798 430.207 27.3016 430.207C12.2233 430.207 0 442.425 0 457.498C0 472.57 12.2233 484.789 27.3016 484.789Z" fill="#C5D9FF"/>
<path d="M242.81 242.089C296.268 242.089 339.605 198.769 339.605 145.331C339.605 91.8933 296.268 48.5732 242.81 48.5732C189.352 48.5732 146.015 91.8933 146.015 145.331C146.015 198.769 189.352 242.089 242.81 242.089Z" fill="#AF9CDA"/>
<path d="M310.01 215.02C309.769 215.02 309.529 214.928 309.362 214.743C308.993 214.373 308.993 213.8 309.362 213.43C327.471 195.328 337.441 171.254 337.441 145.664C337.441 120.074 327.471 95.9999 309.362 77.8982C291.254 59.7965 267.171 49.8304 241.571 49.8304C215.971 49.8304 191.888 59.7965 173.779 77.8982C173.41 78.268 172.836 78.268 172.466 77.8982C172.096 77.5284 172.096 76.9552 172.466 76.5854C190.926 58.1324 215.472 47.9814 241.571 47.9814C267.67 47.9814 292.216 58.1509 310.676 76.5854C329.136 95.0384 339.291 119.575 339.291 145.664C339.291 171.753 329.117 196.29 310.676 214.743C310.491 214.928 310.25 215.02 310.01 215.02Z" fill="#243762"/>
<path d="M242.81 218.958C283.489 218.958 316.465 185.994 316.465 145.331C316.465 104.668 283.489 71.7041 242.81 71.7041C202.132 71.7041 169.155 104.668 169.155 145.331C169.155 185.994 202.132 218.958 242.81 218.958Z" fill="white"/>
<path d="M242.81 219.883C201.691 219.883 168.23 186.434 168.23 145.331C168.23 104.228 201.691 70.7795 242.81 70.7795C243.328 70.7795 243.735 71.1863 243.735 71.704C243.735 72.2218 243.328 72.6285 242.81 72.6285C202.709 72.6285 170.08 105.245 170.08 145.331C170.08 185.417 202.709 218.034 242.81 218.034C243.328 218.034 243.735 218.441 243.735 218.958C243.735 219.476 243.31 219.883 242.81 219.883Z" fill="#243762"/>
<path d="M261.881 159.402H241.848C237.742 159.402 234.394 156.056 234.394 151.951V124.179C234.394 120.61 237.298 117.707 240.868 117.707C244.438 117.707 247.342 120.61 247.342 124.179V146.459H261.881C265.451 146.459 268.355 149.362 268.355 152.931C268.355 156.499 265.469 159.402 261.881 159.402Z" fill="#243762"/>
<path d="M92.522 178.946L196.79 283.174C217.192 303.569 250.264 303.569 270.648 283.174L283.115 270.712C287.813 266.015 287.813 258.379 283.115 253.664L240.572 211.137C235.874 206.441 228.235 206.441 223.518 211.137L202.246 232.401C200.582 234.065 197.881 234.065 196.216 232.401L144.61 180.814C142.963 179.168 142.963 176.505 144.61 174.86L165.585 153.892C170.283 149.196 170.283 141.559 165.585 136.844L121.914 93.1896C117.271 88.5486 109.743 88.4746 105.026 93.0417L93.1879 104.468C72.1753 124.752 71.8794 158.311 92.522 178.946Z" fill="#243762"/>
<path d="M95.7961 106.576L154.395 165.153L156.411 163.137L165.641 153.911C170.339 149.214 170.339 141.578 165.641 136.863L121.914 93.1896C117.271 88.5486 109.743 88.4746 105.026 93.0417L93.188 104.468L95.7961 106.576Z" fill="#ECF1F7"/>
<path d="M154.376 166.447L95.1672 107.26L91.7822 104.542L104.379 92.376C109.428 87.4946 117.604 87.5686 122.561 92.5424L166.27 136.234C171.338 141.3 171.338 149.529 166.27 154.576L154.376 166.447ZM94.5753 104.413L96.4435 105.929L154.376 163.84L164.956 153.263C167.065 151.156 168.212 148.364 168.212 145.405C168.212 142.428 167.047 139.636 164.956 137.547L121.248 93.8367C116.975 89.5655 109.983 89.51 105.655 93.7073L94.5753 104.413Z" fill="#243762"/>
<path d="M214.972 223.71L273.571 282.287L275.587 280.271L284.817 271.045C289.515 266.348 289.515 258.712 284.817 253.997L241.108 210.305C236.466 205.664 228.937 205.59 224.221 210.157L212.383 221.584L214.972 223.71Z" fill="#ECF1F7"/>
<path d="M273.571 283.581L214.362 224.394L210.977 221.676L223.573 209.51C228.641 204.629 236.799 204.703 241.756 209.676L285.464 253.368C287.924 255.827 289.256 259.082 289.256 262.539C289.256 265.997 287.906 269.27 285.464 271.71L273.571 283.581ZM213.751 221.547L215.62 223.063L273.552 280.974L284.132 270.398C286.241 268.29 287.388 265.498 287.388 262.539C287.388 259.562 286.223 256.77 284.132 254.681L240.424 210.989C236.151 206.737 229.159 206.663 224.831 210.86L213.751 221.547Z" fill="#243762"/>
<path d="M135.971 136.271C135.731 136.271 135.491 136.179 135.324 135.994L99.6249 100.308C99.2549 99.9384 99.2549 99.3652 99.6249 98.9954C99.9948 98.6256 100.568 98.6256 100.938 98.9954L136.637 134.681C137.007 135.051 137.007 135.624 136.637 135.994C136.452 136.179 136.212 136.271 135.971 136.271Z" fill="#243762"/>
<path d="M277.973 278.219C277.732 278.219 277.492 278.126 277.326 277.942L241.626 242.256C241.256 241.886 241.256 241.313 241.626 240.943C241.996 240.573 242.57 240.573 242.94 240.943L278.639 276.629C279.009 276.999 279.009 277.572 278.639 277.942C278.454 278.145 278.213 278.219 277.973 278.219Z" fill="#243762"/>
<path d="M434.643 460.659L297.95 440.45C282.486 438.157 271.813 423.79 274.107 408.333L323.124 77.0292C325.418 61.5715 339.79 50.9028 355.253 53.1956L491.946 73.4051C507.41 75.6979 518.083 90.0646 515.789 105.522L466.772 436.826C464.478 452.265 450.088 462.934 434.643 460.659Z" fill="#243762"/>
<path d="M333.793 84.1318L287.505 396.987L457.211 422.077L503.499 109.221L333.793 84.1318Z" fill="#ECF1F7"/>
<path d="M333.793 84.1251L330.318 107.61L500.025 132.7L503.499 109.215L333.793 84.1251Z" fill="#AF9CDA"/>
<path d="M369.496 440.024C368.96 440.024 368.423 439.987 367.868 439.895C364.946 439.47 362.356 437.917 360.599 435.55C358.842 433.165 358.102 430.262 358.527 427.322C358.953 424.4 360.506 421.812 362.874 420.055C365.242 418.299 368.183 417.559 371.087 418.003C374.009 418.428 376.599 419.981 378.356 422.348C380.113 424.715 380.853 427.636 380.428 430.576C379.632 436.068 374.897 440.024 369.496 440.024ZM369.478 419.722C367.517 419.722 365.612 420.351 364.002 421.534C362.023 422.995 360.728 425.158 360.377 427.599C360.007 430.04 360.617 432.462 362.097 434.44C363.558 436.419 365.723 437.713 368.164 438.064C373.195 438.804 377.894 435.328 378.634 430.28C378.985 427.84 378.375 425.417 376.913 423.439C375.452 421.46 373.288 420.166 370.846 419.815C370.384 419.759 369.921 419.722 369.478 419.722Z" fill="#ECF1F7"/>
<path d="M394.023 81.1338C393.857 81.1338 393.672 81.1154 393.505 81.0969C392.562 80.9489 391.729 80.4682 391.175 79.6916C390.601 78.9335 390.379 77.9905 390.509 77.0476C390.638 76.1046 391.138 75.2725 391.914 74.7178C392.673 74.1446 393.616 73.9043 394.56 74.0522C395.503 74.1816 396.335 74.6808 396.89 75.4574C397.464 76.2155 397.686 77.1585 397.556 78.1015C397.279 79.858 395.762 81.1338 394.023 81.1338ZM394.023 75.8457C393.653 75.8457 393.302 75.9566 393.006 76.1785C392.636 76.4559 392.395 76.8442 392.34 77.3064C392.266 77.7502 392.377 78.2124 392.654 78.5822C392.932 78.952 393.32 79.1924 393.783 79.2479C394.245 79.3218 394.689 79.1924 395.059 78.9335C395.429 78.6562 395.669 78.2679 395.725 77.8056C395.799 77.3434 395.669 76.8996 395.41 76.5298C395.133 76.16 394.745 75.9197 394.282 75.8642C394.19 75.8642 394.097 75.8457 394.023 75.8457Z" fill="#ECF1F7"/>
<path d="M449.144 89.2696C448.959 89.2696 448.793 89.2511 448.608 89.2326L405.306 82.8351C404.363 82.6872 403.531 82.2064 402.976 81.4298C402.402 80.6718 402.18 79.7288 402.31 78.7858C402.458 77.8428 402.939 77.0107 403.715 76.456C404.474 75.8828 405.417 75.661 406.361 75.7904L449.662 82.1879C450.605 82.3359 451.438 82.8166 451.993 83.5932C452.566 84.3513 452.788 85.2943 452.659 86.2372C452.511 87.1802 452.03 88.0123 451.253 88.567C450.642 89.0292 449.903 89.2696 449.144 89.2696ZM405.843 77.6024C405.01 77.6024 404.27 78.2126 404.141 79.0631C404.067 79.5069 404.178 79.9691 404.455 80.3389C404.733 80.7087 405.121 80.9491 405.584 81.0046L448.885 87.4021C449.81 87.55 450.698 86.9029 450.827 85.9599C450.901 85.5161 450.79 85.0539 450.513 84.6841C450.235 84.3143 449.847 84.0739 449.385 84.0184L406.083 77.6209C406.009 77.6024 405.917 77.6024 405.843 77.6024Z" fill="#ECF1F7"/>
<path d="M457.912 326.348L339.531 308.838C337.607 308.561 335.813 309.892 335.517 311.815L330.967 342.508C330.689 344.431 332.021 346.225 333.945 346.521L435.16 361.479L445.593 375.864L447.442 363.31L452.326 364.031C454.249 364.308 456.043 362.977 456.339 361.054L460.89 330.36C461.186 328.419 459.854 326.625 457.912 326.348Z" fill="#C5D9FF"/>
<path d="M435.179 362.404C435.142 362.404 435.086 362.404 435.049 362.385L333.834 347.427C332.65 347.26 331.614 346.632 330.911 345.67C330.208 344.709 329.912 343.544 330.079 342.361L334.629 311.667C334.981 309.245 337.256 307.525 339.679 307.914L367.036 311.963C367.535 312.037 367.887 312.499 367.813 313.017C367.739 313.516 367.258 313.867 366.759 313.794L339.401 309.744C337.977 309.541 336.664 310.521 336.442 311.945L331.892 342.638C331.799 343.322 331.966 344.006 332.373 344.561C332.78 345.116 333.39 345.485 334.074 345.578L435.29 360.536C435.789 360.61 436.141 361.072 436.067 361.59C436.011 362.071 435.623 362.404 435.179 362.404Z" fill="#243762"/>
<path d="M476.742 199.137L358.361 181.627C356.437 181.35 354.643 182.681 354.347 184.604L349.797 215.297C349.519 217.22 350.851 219.014 352.775 219.31L453.99 234.268L464.423 248.653L466.272 236.099L471.156 236.82C473.079 237.097 474.874 235.766 475.17 233.843L479.72 203.149C479.997 201.208 478.665 199.414 476.742 199.137Z" fill="#C5D9FF"/>
<path d="M465.015 251.02L453.491 235.119L352.664 220.216C350.241 219.864 348.558 217.59 348.909 215.168C348.983 214.669 349.445 214.336 349.963 214.391C350.463 214.465 350.814 214.928 350.74 215.445C350.629 216.129 350.814 216.814 351.221 217.368C351.628 217.923 352.238 218.293 352.923 218.385L454.527 233.399L463.849 246.25L465.514 235.026L471.322 235.877C472.006 235.969 472.691 235.803 473.246 235.396C473.801 234.989 474.171 234.379 474.263 233.695L477.278 213.263C477.352 212.764 477.815 212.413 478.332 212.487C478.832 212.561 479.183 213.023 479.109 213.541L476.094 233.972C475.928 235.156 475.299 236.191 474.337 236.894C473.375 237.596 472.21 237.892 471.026 237.726L467.049 237.134L465.015 251.02Z" fill="#243762"/>
<path d="M326.898 238.687L445.278 256.197C447.202 256.475 448.534 258.268 448.256 260.21L443.706 290.903C443.429 292.826 441.634 294.157 439.692 293.88L338.495 278.903L324.345 289.646L326.195 277.091L321.311 276.37C319.388 276.092 318.056 274.299 318.333 272.357L322.884 241.664C323.18 239.741 324.974 238.41 326.898 238.687Z" fill="#AF9CDA"/>
<path d="M440.229 294.841C440.007 294.841 439.785 294.823 439.563 294.786L376.377 285.448C375.878 285.374 375.526 284.912 375.6 284.394C375.674 283.895 376.137 283.544 376.655 283.618L439.84 292.955C440.525 293.048 441.209 292.881 441.764 292.474C442.319 292.068 442.689 291.457 442.781 290.773L447.332 260.08C447.535 258.656 446.555 257.343 445.13 257.122C444.631 257.048 444.28 256.585 444.354 256.068C444.428 255.568 444.89 255.217 445.408 255.291C447.831 255.642 449.514 257.917 449.163 260.339L444.612 291.032C444.446 292.216 443.817 293.251 442.855 293.954C442.097 294.527 441.172 294.841 440.229 294.841Z" fill="#243762"/>
<path d="M291.756 368.205L287.497 396.994L457.204 422.084L461.463 393.295L291.756 368.205Z" fill="white"/>
<path d="M316.817 386.348C315.984 391.988 310.731 395.87 305.09 395.038C299.448 394.206 295.564 388.955 296.396 383.316C297.228 377.676 302.481 373.793 308.123 374.625C313.765 375.457 317.649 380.709 316.817 386.348Z" fill="#C5D9FF"/>
<path opacity="0.33" d="M441.986 414.305C441.542 414.305 441.079 414.268 440.636 414.213L330.652 397.96C328.229 397.609 326.065 396.314 324.604 394.336C323.143 392.357 322.532 389.935 322.884 387.513C323.623 382.502 328.322 379.008 333.334 379.766L443.318 396.018C448.33 396.758 451.826 401.436 451.068 406.465C450.402 411.014 446.462 414.305 441.986 414.305ZM440.894 412.382C444.908 412.974 448.645 410.2 449.255 406.188C449.551 404.246 449.052 402.305 447.886 400.733C446.721 399.162 445.001 398.126 443.059 397.849L333.075 381.578C329.062 380.986 325.325 383.76 324.733 387.772C324.437 389.713 324.937 391.655 326.102 393.226C327.267 394.798 328.988 395.834 330.93 396.111L440.894 412.382Z" fill="#AF9CDA"/>
<path d="M344.359 100.992C344.192 100.992 344.007 100.974 343.822 100.955C341.843 100.659 340.474 98.8288 340.77 96.8503C340.918 95.8889 341.418 95.0568 342.194 94.4651C342.971 93.8919 343.933 93.6516 344.877 93.7995C346.856 94.0953 348.225 95.9258 347.929 97.9043C347.67 99.6978 346.134 100.992 344.359 100.992ZM344.359 95.593C343.989 95.593 343.619 95.704 343.304 95.9443C342.916 96.2217 342.675 96.6469 342.601 97.1092C342.527 97.5714 342.657 98.0522 342.934 98.422C343.212 98.8103 343.637 99.0506 344.1 99.1246C345.062 99.2725 345.968 98.6069 346.116 97.6269C346.19 97.1647 346.06 96.6839 345.783 96.3141C345.505 95.9258 345.08 95.6855 344.618 95.6115C344.525 95.6115 344.451 95.593 344.359 95.593Z" fill="white"/>
<path d="M354.384 102.471C354.199 102.471 354.033 102.453 353.848 102.434C351.868 102.139 350.5 100.308 350.796 98.3296C351.092 96.3512 352.941 95.0014 354.902 95.2788C355.864 95.4267 356.696 95.9259 357.288 96.7025C357.861 97.4791 358.102 98.4406 357.954 99.3836C357.806 100.345 357.307 101.177 356.53 101.769C355.901 102.231 355.142 102.471 354.384 102.471ZM354.366 97.0723C353.496 97.0723 352.738 97.701 352.608 98.5885C352.534 99.0507 352.664 99.5315 352.941 99.9013C353.219 100.29 353.644 100.53 354.107 100.604C354.569 100.678 355.05 100.548 355.42 100.271C355.808 99.9937 356.049 99.5685 356.123 99.1062C356.197 98.644 356.067 98.1632 355.79 97.7934C355.512 97.4051 355.087 97.1648 354.624 97.0908C354.551 97.0908 354.458 97.0723 354.366 97.0723Z" fill="white"/>
<path d="M364.187 103.913C364.021 103.913 363.836 103.895 363.651 103.877C361.672 103.581 360.303 101.732 360.599 99.7717C360.895 97.7933 362.745 96.425 364.705 96.7209C366.685 97.0167 368.053 98.8657 367.757 100.826C367.517 102.619 365.963 103.913 364.187 103.913ZM364.187 98.5329C363.818 98.5329 363.448 98.6623 363.133 98.8842C362.745 99.1616 362.504 99.5868 362.43 100.049C362.356 100.511 362.486 100.992 362.763 101.362C363.041 101.75 363.466 101.991 363.929 102.064C364.89 102.194 365.797 101.528 365.945 100.567C366.093 99.6053 365.408 98.6993 364.446 98.5514C364.372 98.5329 364.28 98.5329 364.187 98.5329Z" fill="white"/>
<path d="M502.342 133.941C502.305 133.941 502.249 133.941 502.212 133.923L345.117 110.699C344.618 110.626 344.266 110.163 344.34 109.646C344.414 109.146 344.877 108.795 345.394 108.869L502.49 132.092C502.989 132.166 503.34 132.629 503.266 133.146C503.192 133.609 502.785 133.941 502.342 133.941Z" fill="#243762"/>
<path d="M436.844 333.411C436.807 333.411 436.751 333.411 436.714 333.393L352.904 321.004C352.405 320.93 352.054 320.468 352.128 319.95C352.202 319.451 352.664 319.081 353.182 319.174L436.992 331.562C437.491 331.636 437.843 332.098 437.769 332.616C437.695 333.078 437.306 333.411 436.844 333.411Z" fill="white"/>
<path d="M387.235 336.296C387.198 336.296 387.142 336.296 387.105 336.277L351.424 331.008C350.925 330.934 350.574 330.471 350.648 329.954C350.722 329.454 351.184 329.103 351.702 329.177L387.383 334.447C387.882 334.521 388.233 334.983 388.159 335.501C388.067 335.963 387.679 336.296 387.235 336.296Z" fill="white"/>
<path d="M375.212 344.08C375.175 344.08 375.119 344.08 375.082 344.062L350.037 340.364C349.538 340.29 349.186 339.827 349.26 339.31C349.334 338.81 349.815 338.459 350.315 338.533L375.36 342.231C375.859 342.305 376.21 342.767 376.136 343.285C376.062 343.747 375.656 344.08 375.212 344.08Z" fill="white"/>
<path d="M435.364 343.414C435.327 343.414 435.271 343.414 435.234 343.396L398.37 337.941C397.871 337.867 397.519 337.405 397.593 336.887C397.667 336.388 398.13 336.037 398.647 336.111L435.512 341.565C436.011 341.639 436.363 342.102 436.289 342.619C436.215 343.082 435.826 343.414 435.364 343.414Z" fill="white"/>
<path d="M426.615 263.889C426.578 263.889 426.522 263.889 426.485 263.87L342.675 251.482C342.176 251.408 341.825 250.946 341.899 250.428C341.973 249.929 342.435 249.559 342.953 249.652L426.763 262.04C427.262 262.114 427.614 262.576 427.54 263.094C427.466 263.556 427.059 263.889 426.615 263.889Z" fill="white"/>
<path d="M376.987 266.773C376.95 266.773 376.895 266.773 376.858 266.755L341.177 261.485C340.678 261.411 340.326 260.949 340.4 260.431C340.474 259.932 340.937 259.581 341.455 259.655L377.135 264.924C377.635 264.998 377.986 265.46 377.912 265.978C377.838 266.44 377.45 266.773 376.987 266.773Z" fill="white"/>
<path d="M414.055 281.806C414 281.806 413.963 281.806 413.907 281.787L341.566 270.564C341.066 270.49 340.715 270.009 340.789 269.51C340.863 269.011 341.344 268.659 341.843 268.733L414.185 279.957C414.684 280.031 415.036 280.511 414.962 281.011C414.906 281.473 414.518 281.806 414.055 281.806Z" fill="white"/>
<path d="M425.135 273.892C425.098 273.892 425.042 273.892 425.005 273.874L388.141 268.419C387.642 268.345 387.29 267.883 387.364 267.365C387.438 266.866 387.901 266.514 388.418 266.588L425.283 272.043C425.782 272.117 426.134 272.579 426.06 273.097C425.986 273.559 425.597 273.892 425.135 273.892Z" fill="white"/>
<path d="M342.102 123.273L460.483 140.783C462.407 141.06 463.738 142.854 463.461 144.795L458.911 175.488C458.633 177.411 456.839 178.743 454.897 178.465L353.681 163.507L339.531 174.249L341.381 161.695L336.497 160.974C334.574 160.696 333.242 158.903 333.519 156.961L338.07 126.268C338.384 124.327 340.178 122.995 342.102 123.273Z" fill="#AF9CDA"/>
<path d="M458.911 176.413C458.874 176.413 458.818 176.413 458.781 176.394C458.282 176.32 457.93 175.858 458.004 175.34L462.555 144.647C462.666 143.963 462.481 143.279 462.074 142.724C461.667 142.169 461.056 141.8 460.372 141.707L386.865 130.835C386.365 130.761 386.014 130.299 386.088 129.781C386.162 129.282 386.643 128.931 387.142 129.004L460.649 139.877C461.833 140.043 462.869 140.672 463.572 141.633C464.275 142.595 464.571 143.759 464.404 144.943L459.854 175.636C459.762 176.08 459.373 176.413 458.911 176.413Z" fill="#243762"/>
<path d="M441.819 148.474C441.782 148.474 441.727 148.474 441.69 148.456L357.88 136.068C357.381 135.994 357.029 135.531 357.103 135.014C357.177 134.514 357.64 134.163 358.157 134.237L441.967 146.625C442.467 146.699 442.818 147.162 442.744 147.679C442.67 148.142 442.263 148.474 441.819 148.474Z" fill="white"/>
<path d="M392.192 151.359C392.155 151.359 392.099 151.359 392.062 151.34L356.382 146.071C355.882 145.997 355.531 145.535 355.605 145.017C355.679 144.518 356.141 144.166 356.659 144.24L392.34 149.51C392.839 149.584 393.191 150.046 393.117 150.564C393.043 151.026 392.654 151.359 392.192 151.359Z" fill="white"/>
<path d="M429.26 166.391C429.204 166.391 429.167 166.391 429.112 166.373L356.77 155.149C356.271 155.075 355.919 154.595 355.993 154.095C356.067 153.596 356.548 153.245 357.048 153.319L429.408 164.561C429.907 164.635 430.259 165.116 430.185 165.615C430.111 166.077 429.722 166.391 429.26 166.391Z" fill="white"/>
<path d="M440.34 158.477C440.303 158.477 440.247 158.477 440.21 158.459L403.346 153.004C402.846 152.93 402.495 152.468 402.569 151.95C402.643 151.451 403.105 151.1 403.623 151.174L440.488 156.628C440.987 156.702 441.338 157.165 441.264 157.682C441.19 158.145 440.783 158.477 440.34 158.477Z" fill="white"/>
<path d="M455.748 207.384C455.711 207.384 455.655 207.384 455.618 207.365L371.808 194.977C371.309 194.903 370.957 194.441 371.031 193.923C371.105 193.424 371.568 193.072 372.086 193.146L455.896 205.535C456.395 205.609 456.746 206.071 456.672 206.589C456.598 207.051 456.192 207.384 455.748 207.384Z" fill="white"/>
<path d="M406.12 210.25C406.083 210.25 406.028 210.25 405.991 210.231L370.31 204.961C369.81 204.887 369.459 204.425 369.533 203.908C369.607 203.408 370.088 203.057 370.587 203.131L406.268 208.401C406.767 208.475 407.119 208.937 407.045 209.455C406.971 209.935 406.583 210.25 406.12 210.25Z" fill="white"/>
<path d="M394.097 218.034C394.06 218.034 394.005 218.034 393.968 218.015L368.923 214.317C368.423 214.243 368.072 213.781 368.146 213.263C368.22 212.764 368.682 212.413 369.2 212.487L394.245 216.185C394.745 216.259 395.096 216.721 395.022 217.239C394.948 217.72 394.56 218.034 394.097 218.034Z" fill="white"/>
<path d="M454.268 217.368C454.231 217.368 454.175 217.368 454.138 217.35L417.274 211.895C416.774 211.821 416.423 211.359 416.497 210.841C416.571 210.342 417.033 209.991 417.551 210.065L454.416 215.519C454.915 215.593 455.267 216.055 455.193 216.573C455.119 217.054 454.73 217.368 454.268 217.368Z" fill="white"/>
<path d="M285.316 432.241L95.4261 453.615C91.7822 454.022 88.4897 451.396 88.0828 447.754L74.3765 326.164C74.358 325.979 74.4875 325.794 74.691 325.775L277.048 302.977C277.233 302.959 277.418 303.088 277.437 303.291L291.143 424.937C291.55 428.561 288.942 431.834 285.316 432.241Z" fill="#F7A9B4"/>
<path d="M94.6862 454.595C90.8943 454.595 87.6019 451.729 87.1764 447.865L73.4702 326.274C73.3962 325.572 73.8956 324.943 74.5985 324.869L276.956 302.071C277.659 301.997 278.287 302.496 278.361 303.199L292.068 424.844C292.29 426.841 291.735 428.801 290.477 430.373C289.219 431.945 287.425 432.925 285.427 433.165L95.5371 454.539C95.2411 454.576 94.9637 454.595 94.6862 454.595ZM75.3568 326.626L89.0076 447.661C89.3591 450.786 92.1891 453.06 95.3336 452.709L285.205 431.316C286.704 431.15 288.054 430.391 289.016 429.208C289.959 428.025 290.384 426.546 290.218 425.029L276.567 303.957L75.3568 326.626Z" fill="#243762"/>
<path opacity="0.29" d="M276.419 432.24L104.73 453.633C101.086 454.04 157.927 381.153 157.521 377.51L74.3765 326.163C74.358 325.978 74.4875 325.793 74.691 325.775L277.048 302.977C277.233 302.958 277.418 303.088 277.437 303.291L208.221 371.778C208.609 375.402 280.045 431.834 276.419 432.24Z" fill="#243762"/>
<path d="M74.6908 325.775L158.371 243.051C163.365 238.095 171.097 237.226 177.072 240.924L276.53 302.663C276.697 302.773 276.641 303.032 276.438 303.051L74.3394 325.812" fill="#F7A9B4"/>
<path d="M74.4504 326.737L74.3024 325.368L74.0435 325.109L74.2469 324.906V324.888H74.2839L157.742 242.385C163.051 237.116 171.208 236.191 177.571 240.129L277.03 301.886C277.437 302.145 277.64 302.626 277.547 303.088C277.437 303.55 277.048 303.92 276.567 303.975L74.4504 326.737ZM169.063 239.556C165.4 239.556 161.775 240.961 159.019 243.698L77.2434 324.555L274.292 302.367L176.572 241.701C174.242 240.277 171.634 239.556 169.063 239.556Z" fill="#243762"/>
<path opacity="0.29" d="M74.691 325.775L158.371 243.051C163.366 238.095 171.097 237.226 177.072 240.924L276.53 302.663C276.697 302.773 276.641 303.032 276.438 303.051L74.3396 325.812" fill="#243762"/>
<path d="M167.62 364.733L104.712 452.21L276.401 432.869L195.606 361.572C187.19 354.157 174.186 355.618 167.62 364.733Z" fill="#F7A9B4"/>
<path d="M102.751 453.375L166.862 364.197C170.136 359.63 175.222 356.653 180.808 356.025C186.394 355.396 192.018 357.171 196.216 360.888L278.583 433.572L102.751 453.375ZM183.028 357.763C182.362 357.763 181.678 357.8 181.012 357.874C175.944 358.447 171.338 361.146 168.36 365.288L106.672 451.082L274.237 432.203L194.996 362.293C191.685 359.353 187.412 357.763 183.028 357.763Z" fill="#243762"/>
<path d="M84.9014 265.849L217.155 250.946C225.83 249.966 233.543 255.273 234.394 262.798L242.903 338.219L206.131 372.018L157.539 377.491L109.502 347.482L101.271 274.41L84.9014 265.849Z" fill="white"/>
<path d="M157.299 378.453L108.633 348.037L100.402 275.02L87.8054 264.61L217.044 250.058C221.465 249.559 225.775 250.595 229.215 252.961C232.692 255.347 234.857 258.823 235.301 262.743L243.846 338.626L206.501 372.943L157.299 378.453ZM110.372 346.928L157.724 376.53L205.705 371.131L241.922 337.867L233.469 262.909C233.081 259.544 231.213 256.53 228.179 254.459C225.109 252.351 221.224 251.427 217.266 251.87L88.0089 266.422L102.141 273.8L110.372 346.928Z" fill="#243762"/>
<path opacity="0.29" d="M167.62 357.189L104.712 452.228L276.401 432.887L195.606 354.046C187.19 346.595 174.186 348.074 167.62 357.189Z" fill="#243762"/>
<path d="M167.62 364.733L104.712 452.21L276.401 432.869L195.606 361.572C187.19 354.157 174.186 355.618 167.62 364.733Z" fill="#F7A9B4"/>
<path d="M102.751 453.375L166.862 364.197C170.136 359.63 175.222 356.653 180.808 356.025C186.394 355.396 192.018 357.171 196.216 360.888L278.583 433.572L102.751 453.375ZM183.028 357.763C182.362 357.763 181.678 357.8 181.012 357.874C175.944 358.447 171.338 361.146 168.36 365.288L106.672 451.082L274.237 432.203L194.996 362.293C191.685 359.353 187.412 357.763 183.028 357.763Z" fill="#243762"/>
<path opacity="0.35" d="M173.705 384.111L127.518 448.364L253.612 434.163L194.274 381.8C188.077 376.327 178.533 377.399 173.705 384.111Z" fill="#ECF1F7"/>
<path d="M75.2642 325.175L74.2859 326.744L157.032 378.291L158.011 376.722L75.2642 325.175Z" fill="#243762"/>
<path d="M276.776 302.466L207.592 371.147L208.895 372.459L278.079 303.778L276.776 302.466Z" fill="#243762"/>
<path d="M104.934 308.08L81.8493 310.687L78.1314 277.775C77.447 271.692 81.8308 266.2 87.8978 265.516L88.9522 265.405C95.0377 264.721 100.531 269.103 101.216 275.168L104.934 308.08Z" fill="#ECF1F7"/>
<path d="M81.0354 311.704L77.225 277.868C76.8735 274.687 77.7614 271.544 79.7776 269.029C81.7752 266.515 84.6423 264.943 87.8238 264.592L88.8781 264.481C92.0781 264.129 95.2041 265.017 97.7011 267.032C100.217 269.029 101.789 271.895 102.14 275.076L105.951 308.912L81.0354 311.704ZM90.2284 266.256C89.8399 266.256 89.4515 266.274 89.0631 266.33L88.0087 266.441C85.3082 266.737 82.9036 268.086 81.2018 270.194C79.5186 272.321 78.7417 274.965 79.0562 277.664L82.6631 309.67L103.898 307.285L100.291 275.279C99.9948 272.579 98.6445 270.176 96.5358 268.475C94.7231 267.014 92.522 266.256 90.2284 266.256Z" fill="#243762"/>
<path d="M120.601 290.94C120.138 290.94 119.731 290.589 119.676 290.126C119.62 289.627 119.99 289.165 120.49 289.109L216.323 278.311C216.84 278.256 217.284 278.626 217.34 279.125C217.395 279.624 217.025 280.086 216.526 280.142L120.693 290.94C120.675 290.94 120.638 290.94 120.601 290.94Z" fill="#243762"/>
<path d="M124.281 323.501C123.819 323.501 123.412 323.15 123.357 322.687C123.301 322.188 123.671 321.726 124.17 321.67L219.985 310.872C220.484 310.817 220.947 311.187 221.002 311.686C221.058 312.185 220.688 312.647 220.188 312.703L124.374 323.501C124.355 323.501 124.318 323.501 124.281 323.501Z" fill="#243762"/>
<path d="M122.413 307.045C121.951 307.045 121.544 306.693 121.488 306.231C121.433 305.732 121.803 305.27 122.302 305.214L163.717 300.555C164.217 300.499 164.679 300.869 164.734 301.368C164.79 301.868 164.42 302.33 163.921 302.385L122.506 307.045C122.487 307.045 122.45 307.045 122.413 307.045Z" fill="#243762"/>
<path d="M174.667 301.146C174.205 301.146 173.798 300.795 173.742 300.333C173.687 299.833 174.057 299.371 174.556 299.316L218.135 294.416C218.653 294.36 219.097 294.73 219.152 295.229C219.208 295.729 218.838 296.191 218.339 296.246L174.76 301.146C174.741 301.146 174.704 301.146 174.667 301.146Z" fill="#243762"/>
<path d="M126.353 341.972C125.891 341.972 125.484 341.621 125.428 341.159C125.373 340.659 125.743 340.197 126.242 340.142L167.657 335.482C168.156 335.427 168.619 335.797 168.674 336.296C168.73 336.795 168.36 337.257 167.86 337.313L126.445 341.972C126.427 341.972 126.39 341.972 126.353 341.972Z" fill="#243762"/>
</g>
<defs>
<clipPath id="clip0_33_66">
<rect width="589" height="492" fill="white"/>
</clipPath>
</defs>
</svg>
