<svg width="94" height="67" viewBox="0 0 94 67" fill="none" xmlns="http://www.w3.org/2000/svg">
<g id="Frame" clip-path="url(#clip0_0_545)">
<g id="Group">
<path id="Vector" opacity="0.38" d="M93.6417 42.3412L89.6026 10.8309C88.8821 5.19184 83.721 1.20439 78.0639 1.92402L12.0089 10.3708C6.36354 11.0904 2.37165 16.2458 3.09208 21.8967L7.13121 53.407C7.85163 59.0461 13.0127 63.0335 18.6699 62.3139L42.7038 59.2466L52.5418 66.844L60.1477 57.0169L84.7367 53.8789C90.3702 53.1475 94.3621 47.9803 93.6417 42.3412Z" fill="#616470"/>
<g id="Group_2">
<path id="Vector_2" d="M75.0632 0.0844204L8.99641 8.53121C3.35108 9.25084 -0.640798 14.4062 0.0796308 20.0571L4.11875 51.5556C4.83918 57.1947 10.0003 61.1821 15.6574 60.4625L39.6914 57.3952L49.5294 64.9926L57.1352 55.1655L81.7243 52.0275C87.3696 51.3078 91.3615 46.1525 90.641 40.5016L86.5901 8.9913C85.8697 3.35224 80.7086 -0.635209 75.0632 0.0844204Z" fill="#F25268"/>
<path id="XMLID_1_" d="M47.2744 45.2442L58.9784 33.0341C60.2657 31.6893 61.2223 29.9787 61.5767 28.0793C63.0175 20.2696 55.1637 13.1087 47.5106 17.2849C45.4438 18.4174 44.2391 21.4611 44.2391 21.4611C44.2391 21.4611 42.3141 18.8067 40.0229 18.2404C31.5549 16.117 25.7678 25.0238 29.1219 32.2201C29.9369 33.9779 31.295 35.3818 32.8776 36.3609L47.2744 45.2442Z" fill="white"/>
</g>
</g>
</g>
<defs>
<clipPath id="clip0_0_545">
<rect width="93.7266" height="66.8311" fill="white"/>
</clipPath>
</defs>
</svg>
