<svg width="229" height="149" viewBox="0 0 229 149" fill="none" xmlns="http://www.w3.org/2000/svg">
<g id="Group">
<path id="Vector" opacity="0.38" d="M181.952 32.2983L181.957 32.3157C181.791 32.324 181.607 32.3371 181.445 32.3628L25.8773 54.8809C18.6363 55.9376 13.6306 62.6554 14.6785 69.9221L21.0634 113.74C22.1287 121.001 28.8367 126.031 36.0826 124.992L191.633 102.478C198.874 101.422 203.88 94.7039 202.832 87.4372L196.872 46.4533L210.494 28.1693L181.952 32.2983Z" fill="#616470"/>
<g id="Group_2">
<path id="Vector_2" d="M19.6855 50.574L175.236 28.0607C175.415 28.0302 175.582 28.0219 175.748 28.0136L175.743 27.9962L204.267 23.872L190.646 42.156L196.605 83.1399C197.671 90.4018 192.653 97.1419 185.407 98.1811L29.8909 120.685C22.6498 121.741 15.9196 116.699 14.8717 109.433L8.48684 65.6152C7.44375 58.366 12.4445 51.6307 19.6855 50.574Z" fill="#E2F6CB"/>
<path id="Vector_3" d="M22.7015 74.4764L177.2 52.1177L176.473 47.1154L21.9737 69.4742L22.7015 74.4764Z" fill="#999999"/>
<path id="Vector_4" d="M24.8567 89.2476L179.356 66.8889L178.628 61.8867L24.1289 84.2454L24.8567 89.2476Z" fill="#999999"/>
<path id="Vector_5" d="M119.418 90.6525L181.507 81.6671L180.779 76.6649L118.69 85.6503L119.418 90.6525Z" fill="#999999"/>
<path id="Vector_6" d="M29.1235 107.645L34.1729 111.008L39.9052 98.7708" stroke="#6EC2F2" stroke-width="0.815014" stroke-miterlimit="10"/>
<path id="Vector_7" d="M36.5642 105.688L41.4576 109.301L47.7979 97.3658" stroke="#6EC2F2" stroke-width="0.815014" stroke-miterlimit="10"/>
</g>
</g>
</svg>
