<svg width="65" height="47" viewBox="0 0 65 47" fill="none" xmlns="http://www.w3.org/2000/svg">
<g id="Frame" clip-path="url(#clip0_0_559)">
<g id="Group">
<path id="Vector" opacity="0.38" d="M64.6191 29.2489L61.8317 7.47989C61.3346 3.58413 57.7729 0.829381 53.869 1.32654L8.28531 7.16204C4.38955 7.6592 1.6348 11.2208 2.13196 15.1247L4.91931 36.8937C5.41646 40.7895 8.97808 43.5443 12.882 43.0471L29.4675 40.9281L36.2566 46.1767L41.5053 39.3877L58.4739 37.2197C62.3615 36.7144 65.1162 33.1447 64.6191 29.2489Z" fill="#616470"/>
<g id="Group_2">
<path id="Vector_2" d="M51.7988 0.0545668L6.20694 5.89006C2.31118 6.38722 -0.443568 9.94883 0.0535903 13.8527L2.84094 35.6136C3.3381 39.5094 6.89971 42.2641 10.8036 41.767L27.3892 39.6479L34.1782 44.8966L39.4269 38.1076L56.3955 35.9396C60.2913 35.4425 63.046 31.8808 62.5488 27.9769L59.7533 6.20792C59.2562 2.31215 55.6946 -0.442592 51.7988 0.0545668Z" fill="#F25268"/>
<path id="XMLID_1_" d="M32.6216 31.2533L40.6984 22.8179C41.5868 21.8888 42.2469 20.707 42.4914 19.3948C43.4857 13.9995 38.0659 9.05232 32.7846 11.9375C31.3583 12.7199 30.527 14.8226 30.527 14.8226C30.527 14.8226 29.1985 12.9888 27.6174 12.5976C21.7738 11.1306 17.7802 17.284 20.0948 22.2555C20.6572 23.4699 21.5945 24.4398 22.6866 25.1162L32.6216 31.2533Z" fill="white"/>
</g>
</g>
</g>
<defs>
<clipPath id="clip0_0_559">
<rect width="64.6795" height="46.1705" fill="white"/>
</clipPath>
</defs>
</svg>
