<svg width="59" height="66" viewBox="0 0 59 66" fill="none" xmlns="http://www.w3.org/2000/svg">
<g id="Frame" clip-path="url(#clip0_0_565)">
<g id="Group">
<path id="Vector" opacity="0.38" d="M31.7274 65.1133C47.6522 63.9814 59.6832 49.5813 58.5994 32.9498C57.5156 16.3183 43.7274 3.75335 27.8026 4.88524C11.8779 6.01712 -0.153157 20.4172 0.930629 37.0487C2.01441 53.6802 15.8026 66.2452 31.7274 65.1133Z" fill="#616470"/>
<g id="Group_2">
<path id="XMLID_8_" d="M53.7084 45.7145C61.9142 31.4168 57.4682 12.8788 43.778 4.30886C30.0879 -4.26111 12.3377 0.382159 4.13185 14.6799C-4.07395 28.9776 0.372006 47.5156 14.0622 56.0855C27.7524 64.6555 45.5026 60.0123 53.7084 45.7145Z" fill="#FDDA74"/>
<g id="XMLID_1_">
<g id="XMLID_5_">
<path id="XMLID_7_" d="M47.9032 40.4063C42.6771 51.4436 29.8858 55.9832 19.3176 50.5252C8.74933 45.0673 4.40259 31.7082 9.62863 20.6537L47.9032 40.4063Z" fill="#3C3C3B"/>
<path id="XMLID_6_" d="M25.2386 37.981C19.7637 35.1567 13.6916 35.0354 8.38257 37.08C10.0416 42.7285 13.8409 47.684 19.3158 50.5083C24.7907 53.3326 30.8628 53.4539 36.1718 51.4093C34.4962 45.7607 30.7135 40.8053 25.2386 37.981Z" fill="#F25268"/>
</g>
<g id="XMLID_2_">
<path id="XMLID_4_" d="M13.6739 15.4718C13.2094 15.2292 12.9439 14.6747 13.0766 14.1203C13.226 13.4792 13.8564 13.098 14.4537 13.2713L23.0808 15.6104L18.8004 9.07815C18.452 8.54102 18.5847 7.79596 19.099 7.4321C19.6133 7.06823 20.3267 7.20685 20.6751 7.74398L26.6644 16.8926C26.9298 17.3084 26.9298 17.8456 26.6644 18.2441C26.3989 18.6426 25.9012 18.8332 25.4532 18.7119L13.8896 15.5931C13.8232 15.5411 13.7403 15.5238 13.6739 15.4718Z" fill="#3C3C3B"/>
<path id="XMLID_3_" d="M49.3801 33.8901C49.3138 33.8554 49.2474 33.8034 49.181 33.7515L39.7742 26.0583C39.4092 25.7464 39.2433 25.244 39.3926 24.7761C39.5419 24.3083 39.9401 23.9791 40.4212 23.9444L51.0226 23.3553C51.6531 23.3207 52.1839 23.8232 52.2171 24.4816C52.2503 25.14 51.7692 25.6945 51.1387 25.7291L43.5734 26.145L50.5913 31.8802C51.089 32.2787 51.1719 33.0237 50.7903 33.5435C50.4419 34.0114 49.8447 34.1327 49.3801 33.8901Z" fill="#3C3C3B"/>
</g>
</g>
</g>
</g>
</g>
<defs>
<clipPath id="clip0_0_565">
<rect width="58.681" height="65.2011" fill="white"/>
</clipPath>
</defs>
</svg>
