<svg width="51" height="52" viewBox="0 0 51 52" fill="none" xmlns="http://www.w3.org/2000/svg">
<g id="Frame" clip-path="url(#clip0_0_551)">
<g id="Group">
<path id="Vector" opacity="0.38" d="M29.8439 51.6739C43.2646 49.7528 52.5868 37.3159 50.6657 23.8952C48.7446 10.4745 36.3076 1.15229 22.8869 3.0734C9.46627 4.99451 0.144039 17.4315 2.06515 30.8522C3.98626 44.2728 16.4232 53.5951 29.8439 51.6739Z" fill="#616470"/>
<g id="Group_2">
<path id="XMLID_4_" d="M43.1021 40.6362C51.9851 30.3934 50.8827 14.889 40.6399 6.00604C30.3972 -2.8769 14.8927 -1.77454 6.00977 8.46823C-2.87317 18.711 -1.77081 34.2155 8.47196 43.0984C18.7147 51.9813 34.2192 50.879 43.1021 40.6362Z" fill="#4080FF"/>
<g id="XMLID_1_">
<path id="XMLID_3_" d="M11.7381 18.275L9.08398 32.4301L15.3724 33.6092L18.0266 19.4541L11.7381 18.275Z" fill="white"/>
<path id="XMLID_2_" d="M36.3387 24.8297C37.0315 24.5526 37.5775 23.9495 37.7242 23.1589C37.9524 21.9364 37.1537 20.7628 35.9312 20.5346L29.1585 19.2632C29.5008 17.8695 29.9816 15.62 30.1528 13.3951C30.4217 9.78454 26.3956 10.6566 26.3956 10.6566C27.5529 15.3511 20.0221 21.8712 20.0221 21.8712L17.8787 33.3221L30.4869 35.6857C31.7094 35.9139 32.8831 35.107 33.1113 33.8926C33.2254 33.2895 33.0868 32.6946 32.7608 32.2137C33.8611 32.2626 34.8635 31.5047 35.0755 30.3881C35.1896 29.785 35.051 29.19 34.725 28.7092C35.8253 28.7581 36.8277 28.0001 37.0396 26.8835C37.1782 26.1011 36.8848 25.335 36.3387 24.8297Z" fill="white"/>
</g>
</g>
</g>
</g>
<defs>
<clipPath id="clip0_0_551">
<rect width="50.9221" height="51.9327" fill="white"/>
</clipPath>
</defs>
</svg>
