<svg width="125" height="51" viewBox="0 0 125 51" fill="none" xmlns="http://www.w3.org/2000/svg">
<g id="Group">
<g id="Group_2">
<path id="Vector" d="M0.00146484 50.6823C0.00146484 50.6823 9.49352 43.2407 9.49352 32.4553C9.49352 26.2833 9.66313 17.5029 9.80762 11.1234C9.90813 6.57296 13.6271 2.93384 18.1815 2.93384H116.325C120.948 2.93384 124.699 6.68609 124.699 11.312V42.2602C124.699 46.9049 120.923 50.6635 116.287 50.6383L21.2031 50.1984C17.4842 50.1795 13.9223 48.6962 11.2902 46.0627C11.2902 46.0627 8.212 50.4246 0.00146484 50.6823Z" fill="#7689F4"/>
<g id="Group_3">
<path id="Vector_2" d="M0 47.7485C0 47.7485 9.49206 40.3069 9.49206 29.5215C9.49206 23.3494 9.66167 14.569 9.80616 8.18959C9.90667 3.63912 13.6256 0 18.18 0H116.323C120.947 0 124.697 3.75225 124.697 8.37814V39.3264C124.697 43.9711 120.922 47.7296 116.286 47.7045L21.2016 47.2583C17.4827 47.2394 13.9208 45.7561 11.2887 43.1226C11.2887 43.1289 8.21054 47.4908 0 47.7485Z" fill="#7689F4"/>
<g id="Group_4">
<path id="Vector_3" d="M36.7439 37.0502C44.0679 37.0502 50.0051 31.1099 50.0051 23.7822C50.0051 16.4545 44.0679 10.5142 36.7439 10.5142C29.4199 10.5142 23.4827 16.4545 23.4827 23.7822C23.4827 31.1099 29.4199 37.0502 36.7439 37.0502Z" fill="white"/>
<g id="Group_5">
<path id="Vector_4" d="M111.405 14.2679H61.0924C59.8926 14.2679 58.9126 13.2874 58.9126 12.087C58.9126 10.8865 59.8926 9.90601 61.0924 9.90601H111.405C112.605 9.90601 113.585 10.8865 113.585 12.087C113.585 13.2874 112.605 14.2679 111.405 14.2679Z" fill="white"/>
<path id="Vector_5" d="M111.405 22.2501H61.0924C59.8926 22.2501 58.9126 21.2696 58.9126 20.0691C58.9126 18.8687 59.8926 17.8882 61.0924 17.8882H111.405C112.605 17.8882 113.585 18.8687 113.585 20.0691C113.585 21.2696 112.605 22.2501 111.405 22.2501Z" fill="white"/>
<path id="Vector_6" d="M111.405 30.2394H61.0924C59.8926 30.2394 58.9126 29.2589 58.9126 28.0584C58.9126 26.8579 59.8926 25.8774 61.0924 25.8774H111.405C112.605 25.8774 113.585 26.8579 113.585 28.0584C113.585 29.2589 112.605 30.2394 111.405 30.2394Z" fill="white"/>
<path id="Vector_7" d="M86.4151 38.2286H60.5019C59.6287 38.2286 58.9126 37.5121 58.9126 36.6385V35.4568C58.9126 34.5832 59.6287 33.8667 60.5019 33.8667H86.4088C87.282 33.8667 87.9981 34.5832 87.9981 35.4568V36.6385C87.9981 37.5121 87.2883 38.2286 86.4151 38.2286Z" fill="white"/>
</g>
</g>
</g>
</g>
<g id="Group_6">
<path id="Vector_8" d="M50.1693 25.7047C51.4038 18.1475 46.2815 11.0199 38.7281 9.78478C31.1748 8.54963 24.0509 13.6746 22.8164 21.2318C21.5818 28.789 26.7042 35.9166 34.2575 37.1517C41.8109 38.3869 48.9348 33.2619 50.1693 25.7047Z" fill="#FAFAFA"/>
<g id="Group_7">
<g id="Clip path group">
<mask id="mask0_0_514" style="mask-type:luminance" maskUnits="userSpaceOnUse" x="24" y="11" width="25" height="25">
<g id="SVGID_2_">
<path id="Vector_9" d="M40.8549 34.1595C46.7573 31.7453 49.586 25.0009 47.173 19.0955C44.76 13.1901 38.0191 10.3599 32.1167 12.7742C26.2143 15.1884 23.3856 21.9328 25.7985 27.8382C28.2115 33.7436 34.9525 36.5737 40.8549 34.1595Z" fill="white"/>
</g>
</mask>
<g mask="url(#mask0_0_514)">
<g id="Group_8">
<path id="Vector_10" d="M44.5738 33.0251C44.5738 29.1723 41.4517 26.0486 37.6008 26.0486H35.6095C31.7586 26.0486 28.6365 29.1723 28.6365 33.0251V35.0175H44.5738V33.0251Z" fill="#5400FF"/>
<path id="Vector_11" d="M36.6024 16.804C38.8011 16.804 40.5852 18.5889 40.5852 20.7888C40.5852 22.9886 38.8011 24.7736 36.6024 24.7736C34.4037 24.7736 32.6196 22.9886 32.6196 20.7888C32.6196 18.5889 34.4037 16.804 36.6024 16.804Z" fill="#5400FF"/>
</g>
</g>
</g>
</g>
</g>
</g>
</svg>
