<svg width="28" height="26" viewBox="0 0 28 26" fill="none" xmlns="http://www.w3.org/2000/svg">
<path d="M25.3334 20.7916C25.8791 20.7919 26.4038 21.0021 26.7987 21.3787C27.1937 21.7553 27.4286 22.2694 27.4548 22.8145C27.4811 23.3596 27.2966 23.8939 26.9396 24.3067C26.5826 24.7195 26.0805 24.9791 25.5374 25.0317L25.3334 25.0416H2.66669C2.12096 25.0414 1.59626 24.8312 1.20131 24.4546C0.806351 24.078 0.57142 23.5639 0.545194 23.0188C0.518969 22.4737 0.703459 21.9394 1.06044 21.5266C1.41741 21.1138 1.91951 20.8542 2.46269 20.8016L2.66669 20.7916H25.3334ZM25.3334 10.875C25.8969 10.875 26.4374 11.0989 26.836 11.4974C27.2345 11.8959 27.4584 12.4364 27.4584 13C27.4584 13.5636 27.2345 14.1041 26.836 14.5026C26.4374 14.9011 25.8969 15.125 25.3334 15.125H2.66669C2.1031 15.125 1.5626 14.9011 1.16409 14.5026C0.76557 14.1041 0.541687 13.5636 0.541687 13C0.541687 12.4364 0.76557 11.8959 1.16409 11.4974C1.5626 11.0989 2.1031 10.875 2.66669 10.875H25.3334ZM25.3334 0.958313C25.8969 0.958313 26.4374 1.1822 26.836 1.58071C27.2345 1.97923 27.4584 2.51973 27.4584 3.08331C27.4584 3.6469 27.2345 4.1874 26.836 4.58592C26.4374 4.98443 25.8969 5.20831 25.3334 5.20831H2.66669C2.1031 5.20831 1.5626 4.98443 1.16409 4.58592C0.76557 4.1874 0.541687 3.6469 0.541687 3.08331C0.541687 2.51973 0.76557 1.97923 1.16409 1.58071C1.5626 1.1822 2.1031 0.958313 2.66669 0.958313H25.3334Z" fill="#F8F8F8"/>
</svg>
