<svg width="498" height="418" viewBox="0 0 498 418" fill="none" xmlns="http://www.w3.org/2000/svg">
<g clip-path="url(#clip0_22_1208)">
<path fill-rule="evenodd" clip-rule="evenodd" d="M159.343 287.059C159.697 292.96 161.328 298.752 163.238 304.401C163.741 305.885 164.911 307.116 164.859 308.794C165.003 308.243 165.122 307.688 165.221 307.134C167.945 311.436 186.176 339.986 200.718 356.634C204.38 355.543 207.87 354.126 210.531 351.143C210.516 351.11 210.501 351.078 210.486 351.045C214.843 348.538 222.289 340.488 224.142 340.488C234.804 340.488 285.02 322.713 288.37 320.961C288.977 319.978 288.835 318.874 288.896 317.801C289.144 311.71 290.692 309.745 296.57 308.097C309.961 304.339 323.37 300.635 336.713 296.708C338.037 295.978 338.485 294.599 339.11 293.37C342.937 285.816 346.711 278.238 350.209 270.528C351.137 268.481 352.41 267.35 354.752 267.951C358.132 268.918 361.475 270.004 364.866 270.924C365.8 271.179 366.78 271.807 367.734 270.932C366.998 269.124 366.321 267.289 365.513 265.514C361.978 257.737 366.301 253.306 371.441 251.009C375.366 249.253 379.647 248.726 383.947 248.558C389.897 248.325 395.877 249.122 401.805 248.005C404.05 247.582 406.105 246.678 407.967 245.453C411.2 243.333 411.915 238.244 409.789 233.478C408.296 230.128 406.222 227.105 403.796 224.417C395.824 215.583 386.719 208.049 376.639 201.743C365.465 194.754 353.742 188.872 341.175 184.79C333.735 182.374 326.05 181.138 318.324 180.07C314.553 179.55 310.784 179.019 307.005 178.596C290.029 172.553 261.47 176.303 243.953 182.352C223.637 189.369 205.528 197.13 194.665 208.234C194.639 208.163 194.614 208.092 194.588 208.019C189.3 213.144 184.664 218.81 180.522 224.894C179.694 226.11 179.157 227.577 177.754 228.335C180.288 236.611 183.632 244.595 186.544 252.734C187.955 256.679 189.494 260.578 190.882 264.53C191.18 265.381 192.215 266.449 190.989 267.271C189.945 267.972 189.305 266.808 188.64 266.291C182.793 261.755 176.419 258.539 168.918 257.813C166.921 257.618 165.027 257.865 163.103 258.186C163.096 260.87 158.385 271.139 159.343 287.059ZM198.962 264.778C198.656 264.684 198.35 264.593 198.044 264.493C198.044 264.406 198.047 264.327 198.046 264.239C198.029 264.117 198.007 263.998 197.989 263.878C198.31 264.182 198.634 264.482 198.962 264.778Z" fill="#E5DBED"/>
<path fill-rule="evenodd" clip-rule="evenodd" d="M164.859 308.794C164.859 308.794 177.499 272.991 242.228 296.721C244.222 297.365 246.216 298.009 248.211 298.653C245.113 299.702 242.738 301.293 240.98 303.294L237.42 322.056C238.196 327.227 239.656 332.225 240.981 337.271C240.868 337.834 240.979 338.394 241.052 338.944C242.311 348.316 244.675 357.456 246.848 366.639C248.131 372.067 249.749 377.49 248.878 383.198C236.185 379.673 224.464 374.182 213.508 367.149H213.506C213.506 367.149 210.678 365.816 205.865 361.912C205.816 361.876 205.765 361.841 205.716 361.803C205.718 361.803 205.723 361.801 205.727 361.798C196.658 354.409 182.293 342.38 164.859 308.794Z" fill="#6862AC"/>
<path fill-rule="evenodd" clip-rule="evenodd" d="M273.512 315.365C270.543 307.089 265.571 300.839 256.565 298.771C253.81 298.14 250.999 298.441 248.21 298.654C242.567 298.987 239.719 302.867 237.64 307.387C235.542 311.947 235.887 316.839 236.551 321.685C237.274 326.973 238.619 332.11 240.296 337.164C245.62 353.2 253.346 368.096 261.837 382.63C262.938 383.957 263.798 385.49 265.159 386.603C268.666 391.419 272.096 396.292 275.705 401.029C278.755 405.03 282.027 408.851 285.786 412.238C294.937 420.489 304.305 419.858 312.568 410.482C319.337 402.8 323.749 393.806 327.427 384.378C327.729 383.608 328.129 382.877 328.484 382.128C331.949 377.519 333.58 372.009 335.889 366.84C338.245 361.564 340.176 356.11 342.353 350.759C342.813 348.874 343.563 347.081 344.129 345.231C345.529 341.559 346.594 337.771 347.979 334.097C348.478 332.772 349.065 331.547 350.429 330.817C354.076 328.865 356.748 325.918 358.803 322.368C359.607 320.89 360.428 319.406 360.812 317.761C361.898 313.095 364.197 309.137 367.435 305.633C369.711 303.17 369.261 301.548 366.157 300.136C365.454 300.035 364.751 300.052 364.052 300.161C360.839 300.868 358.921 303.287 356.914 305.588C356.704 305.73 356.506 305.888 356.313 306.051C355.75 306.535 355.232 307.071 354.705 307.596C354.441 307.848 354.189 308.112 353.936 308.373C353.506 308.808 353.053 309.215 352.545 309.559C349.147 311.827 346.088 314.422 344.257 318.196C343.45 319.954 342.139 319.168 340.93 318.849C338.111 318.108 335.461 316.629 332.412 316.87C331.531 318.251 332.639 319.27 333.074 320.401C333.562 321.668 334.763 322.581 334.881 324.032C332.6 328.84 329.302 332.988 326.323 337.341C325.425 338.896 324.248 340.243 323.099 341.609C322.087 343.531 320.858 345.311 319.593 347.071C316.948 350.6 314.57 354.323 311.886 357.827C309.603 361.457 307.144 364.97 304.623 368.439C302.941 370.679 301.46 373.104 298.909 374.531C297.932 376.309 297.102 378.187 295.341 379.846C293.362 375.316 291.85 370.842 290.312 366.397C284.967 350.95 279.532 335.532 274.949 319.833C274.508 318.327 273.524 317.003 273.512 315.365Z" fill="#F79D83"/>
<path fill-rule="evenodd" clip-rule="evenodd" d="M358.257 322.056C355.9 325.669 353.256 328.975 349.1 330.676C348.097 331.087 347.973 332.11 347.678 332.954C346.243 337.062 344.863 341.188 343.465 345.31C343.23 346.694 344.333 347.06 345.22 347.456C354.036 351.382 362.713 355.602 371.514 359.559C372.297 359.91 373.093 360.058 373.926 360.113C382.961 353.248 389.604 344.799 391.632 333.297C390.044 331.674 387.838 330.949 386.139 329.468C385.154 328.61 384.127 327.802 383.303 326.78C379.787 322.416 380.06 318.916 383.917 314.898C385.524 313.224 388.023 312.583 389.045 310.297C387.524 304.404 384.567 299.145 381.76 293.828C380.505 291.449 378.967 289.218 377.773 286.811C376.876 285.007 375.738 284.587 374.004 285.423C371.507 286.536 371.076 288.832 370.711 291.17C371.968 294.362 373.419 297.51 373.682 300.994C374.372 310.101 370.456 316.411 361.728 320.315C360.543 320.842 359.311 321.267 358.257 322.056Z" fill="#F9E900"/>
<path fill-rule="evenodd" clip-rule="evenodd" d="M342.01 350.589C339.73 354.046 338.867 358.111 337.227 361.841C334.265 368.583 331.393 375.363 328.484 382.128C339.303 378.649 349.874 374.548 359.908 369.174C363.34 367.335 366.603 365.184 369.945 363.175C366.111 360.306 361.503 358.965 357.284 356.864C353.212 354.839 349.115 352.817 344.887 351.11C343.968 350.738 343.105 349.997 342.01 350.589Z" fill="#FBCECF"/>
<path fill-rule="evenodd" clip-rule="evenodd" d="M398.557 268.123C399.117 261.817 392.943 257.405 388.044 257.481C383.388 257.556 377.521 261.776 377.7 268.402C377.863 274.401 382.556 278.778 388.172 278.845C394.063 278.913 399.163 273.674 398.557 268.123Z" fill="#E5DBED"/>
<path fill-rule="evenodd" clip-rule="evenodd" d="M240.981 337.27C239.702 340.13 241.017 342.917 241.386 345.671C242.634 354.963 245.676 363.876 247.51 373.056C248.184 376.428 247.851 379.899 248.878 383.197C252.388 384.126 255.897 385.055 259.407 385.986C260.948 385.354 262.228 384.496 262.342 382.619C261.111 378.86 258.66 375.755 256.799 372.336C250.783 361.281 245.291 350 241.41 337.989C241.326 337.731 241.126 337.51 240.981 337.27Z" fill="#413D82"/>
<path fill-rule="evenodd" clip-rule="evenodd" d="M389.046 310.296C387.072 311.654 384.992 312.839 383.288 314.594C379.366 318.633 378.992 321.773 382.238 326.415C384.572 329.752 387.765 332.009 391.632 333.298C393.065 325.371 391.952 317.733 389.046 310.296Z" fill="#F4CE14"/>
<path fill-rule="evenodd" clip-rule="evenodd" d="M179.283 108.174C175.642 108.174 171.999 108.213 168.36 108.161C166.114 108.129 165.058 109.28 165.035 111.39C165.013 113.527 166.092 114.623 168.337 114.612C175.62 114.572 182.903 114.59 190.186 114.606C192.354 114.612 193.48 113.668 193.47 111.405C193.459 109.182 192.411 108.153 190.208 108.168C186.567 108.191 182.924 108.173 179.283 108.174Z" fill="#3C3E98"/>
<path fill-rule="evenodd" clip-rule="evenodd" d="M342.009 350.589C350.365 354.451 358.718 358.316 367.074 362.173C367.998 362.599 368.867 363.192 369.945 363.174C371.271 362.154 372.599 361.134 373.926 360.113C364.845 355.85 355.76 351.597 346.688 347.314C345.546 346.774 344.139 346.618 343.465 345.307C342.968 347.066 341.732 348.618 342.009 350.589Z" fill="#E08A27"/>
<path fill-rule="evenodd" clip-rule="evenodd" d="M154.593 111.69C154.576 113.907 156.251 115.689 158.41 115.577C160.66 115.462 162.033 114.259 162.169 111.927C162.297 109.739 160.619 107.91 158.504 107.829C156.436 107.752 154.608 109.556 154.593 111.69Z" fill="#3C3E98"/>
<path fill-rule="evenodd" clip-rule="evenodd" d="M262.341 382.619C261.362 383.741 260.385 384.863 259.407 385.986C261.343 386.014 263.186 386.92 265.16 386.603C264.574 385.024 263.814 383.569 262.341 382.619Z" fill="#FCD7D6"/>
<path fill-rule="evenodd" clip-rule="evenodd" d="M335.611 324.291C336.265 322.795 334.777 322.224 334.29 321.22C333.618 319.831 332.509 318.631 332.433 316.979C332.641 316.365 332.385 315.804 331.971 315.472C329.35 313.36 329.999 311.146 331.424 308.634C333.208 305.491 334.728 302.199 336.28 298.931C336.684 298.082 337.558 297.233 336.763 296.142C327.289 298.772 317.813 301.399 308.339 304.031C304.138 305.199 299.943 306.399 295.735 307.54C290.124 309.059 288.105 311.746 288.252 317.602C288.712 320.055 290.018 321.912 292.288 322.946C298.561 325.805 304.774 328.787 311.08 331.569C311.849 331.907 312.641 332.2 313.513 332.082C314.458 331.929 315.228 331.398 316.016 330.91C321.158 327.732 326.789 325.973 332.736 325.135C333.739 324.995 334.792 325.05 335.611 324.291Z" fill="#FCF27E"/>
<path fill-rule="evenodd" clip-rule="evenodd" d="M299.425 374.156C299.967 374.672 300.452 374.775 300.991 374.095C302.39 372.332 304.005 370.733 305.032 368.692C304.875 367.714 304.198 367.028 303.635 366.299C299.235 360.597 299.048 354.455 301.769 348.052C303.318 344.408 305.655 341.247 308.13 338.186C308.767 337.398 309.632 336.749 309.722 335.62C309.425 334.178 308.146 333.884 307.064 333.407C303.137 331.676 299.331 329.662 295.358 328.053C291.887 326.648 289.386 324.44 288.034 320.946C284.439 321.491 281.215 323.427 277.559 323.749C276.95 324.847 277.687 325.735 278.078 326.625C283.107 338.047 288.327 349.383 293.246 360.851C294.789 364.446 296.257 368.072 297.769 371.681C298.157 372.606 298.347 373.686 299.425 374.156Z" fill="#FCDDDC"/>
<path fill-rule="evenodd" clip-rule="evenodd" d="M299.425 374.156C293.719 359.4 287.055 345.062 280.624 330.623C279.602 328.331 278.58 326.041 277.559 323.75C276.209 320.956 274.86 318.161 273.511 315.365C273.115 317.911 274.257 320.198 274.958 322.483C280.939 341.974 287.664 361.218 294.569 380.399C294.661 380.654 294.846 380.878 295.223 381.514C296.937 379.075 299.061 377.176 299.425 374.156Z" fill="#E9846C"/>
<path fill-rule="evenodd" clip-rule="evenodd" d="M288.034 320.947C288.225 324.269 290.019 326.335 292.986 327.685C298.515 330.203 303.981 332.857 309.474 335.455C309.621 335.834 309.728 336.24 310.105 336.48C313.435 337.862 316.744 339.293 319.923 341.012C321.046 341.443 322.1 342.181 323.406 341.815C325.041 340.95 325.699 339.261 326.717 337.877C322.568 335.148 318.159 332.994 313.333 331.749C306.388 328.579 299.452 325.39 292.493 322.253C290.38 321.301 289.56 319.249 288.25 317.605C288.179 318.719 288.107 319.833 288.034 320.947Z" fill="#E08A27"/>
<path fill-rule="evenodd" clip-rule="evenodd" d="M375.968 274.981C375.3 272.809 373.224 272.871 371.596 272.244C370.328 271.757 369.023 271.366 367.734 270.932C363.415 269.697 359.097 268.461 354.778 267.225C352.289 266.25 351.017 267.505 349.975 269.625C345.616 278.487 341.174 287.308 336.761 296.143C334.904 299.98 333.063 303.824 331.185 307.651C328.683 312.742 328.67 312.736 332.432 316.979C335.612 317.964 338.836 318.823 341.952 319.98C343.951 320.72 344.712 320.163 344.783 318.183C342.891 316.303 340.302 316.019 337.934 315.329C330.607 313.196 330.589 313.254 334.042 306.347C339.881 294.67 345.731 282.999 351.474 271.273C352.144 269.904 352.981 268.725 354.117 267.736C354.155 267.705 354.194 267.676 354.234 267.646C354.167 267.791 354.155 267.968 354.25 268.202C354.942 269.052 355.967 269.274 356.933 269.566C362.791 271.338 368.697 272.942 374.484 274.952C374.776 275.055 375.071 275.081 375.365 275.005C375.323 275.04 375.28 275.075 375.241 275.126C371.749 282.779 367.986 290.303 364.223 297.827C363.79 298.691 363.022 299.593 363.816 300.67C364.555 300.643 365.294 300.614 366.033 300.585C368.847 298.029 369.987 294.577 371.096 291.108C371.82 289.086 372.792 287.194 374.004 285.422C374.704 283.93 375.336 282.402 376.121 280.955C377.233 278.904 377.326 276.94 375.968 274.981Z" fill="#3B303B"/>
<path fill-rule="evenodd" clip-rule="evenodd" d="M310.215 335.894C309.967 335.747 309.72 335.601 309.474 335.454C306.241 339.297 303.138 343.218 301.026 347.837C297.64 355.241 299.321 364.14 305.031 368.69C307.792 365.419 310.235 361.932 312.244 358.146C313.566 355.536 312.476 352.852 312.343 350.24C312.152 346.467 311.613 342.706 311.375 338.929C311.302 337.765 310.88 336.797 310.215 335.894Z" fill="#FBCECE"/>
<path fill-rule="evenodd" clip-rule="evenodd" d="M371.096 291.108C369.408 294.269 367.72 297.428 366.032 300.587C368.791 302.016 369.024 303.009 366.999 305.121C363.777 308.481 361.423 312.285 360.331 316.881C359.906 318.672 358.965 320.335 358.258 322.057C373.405 318.427 378.811 304.584 371.096 291.108Z" fill="#FCF27E"/>
<path fill-rule="evenodd" clip-rule="evenodd" d="M313.333 331.749C317.703 333.991 322.111 336.153 326.718 337.876C329.832 333.449 333.139 329.144 335.611 324.291C327.394 324.41 320.083 327.24 313.333 331.749Z" fill="#F9E900"/>
<path fill-rule="evenodd" clip-rule="evenodd" d="M310.215 335.894C310.891 343.31 311.566 350.727 312.243 358.144C315.352 354.87 317.487 350.891 320.114 347.267C320.925 345.006 321.522 342.744 320.099 340.487C316.951 338.639 313.648 337.126 310.215 335.894Z" fill="#372D38"/>
<path fill-rule="evenodd" clip-rule="evenodd" d="M320.099 340.487C320.103 342.748 320.109 345.007 320.114 347.268C321.346 345.532 322.962 344.028 323.406 341.814C322.303 341.372 321.201 340.929 320.099 340.487Z" fill="#FBCECE"/>
<path fill-rule="evenodd" clip-rule="evenodd" d="M109.07 121.565C118.221 121.495 127.369 121.276 136.52 121.16C150.803 120.975 165.087 120.829 179.371 120.666C183.366 120.584 187.365 120.578 191.356 120.385C193.036 120.304 193.831 120.885 194.398 122.464C196.689 128.849 199.112 135.187 201.487 141.542C202.061 141.905 202.456 142.425 202.694 143.044C206.308 152.451 209.836 161.89 213.189 171.393C214.07 173.892 213.11 175.007 210.381 175.227C202.774 175.844 195.142 176.115 187.546 176.909C186.33 177.035 185.119 176.943 184.015 176.318C179.769 176.335 179.795 176.337 179.342 180.566C179.063 183.165 178.713 185.758 178.338 188.345C178.214 189.202 178.615 190.415 177.397 190.729C176.3 191.013 175.811 189.917 175.178 189.294C171.647 185.822 168.116 182.354 164.669 178.799C163.538 177.633 162.358 177.172 160.734 177.21C151.214 177.437 141.693 177.579 132.173 177.731C125.788 177.832 125.788 177.818 123.904 171.708C123.85 171.534 123.868 171.338 123.853 171.153C123.705 170.917 123.508 170.699 123.417 170.443C117.998 155.033 112.606 139.614 107.156 124.216C106.444 122.204 106.955 121.581 109.07 121.565Z" fill="#3C3E98"/>
<path fill-rule="evenodd" clip-rule="evenodd" d="M331.205 310.474C337.98 296.91 344.699 283.316 351.411 269.719C351.992 268.542 352.674 267.661 354.117 267.736C358.158 269.029 362.221 270.26 366.235 271.633C369.356 272.697 372.708 273.125 375.561 274.944C375.712 276.125 375.143 277.084 374.656 278.091C371.028 285.612 367.426 293.143 363.816 300.67C360.747 301.614 359.166 304.397 356.876 306.303C356.876 306.303 356.764 306.284 356.762 306.283C356.157 306.902 355.552 307.52 354.946 308.138C354.946 308.138 354.946 308.138 354.946 308.14C354.741 308.306 354.536 308.473 354.331 308.639C354.121 309.234 353.651 309.529 353.092 309.723C350.013 312.241 346.765 314.587 344.782 318.182C340.878 316.963 336.993 315.683 333.065 314.552C330.728 313.88 330.057 312.769 331.205 310.474Z" fill="#F9F9FA"/>
<path fill-rule="evenodd" clip-rule="evenodd" d="M72.3029 207.187C77.3499 224.287 82.3427 241.413 87.353 258.531C87.8353 260.181 88.4343 261.79 88.7814 263.489C89.1894 265.479 89.9854 266.094 91.5298 265.923C97.4829 265.266 103.447 264.772 109.406 264.193C109.811 264.153 110.206 263.919 110.607 263.776C119.991 262.892 129.379 262.011 138.764 261.123C145.419 260.493 152.074 259.842 158.73 259.216C162.559 258.856 172.821 258.259 174.135 258.442C179.403 259.179 184.019 261.878 188.254 265.971C189.214 266.9 190.226 268.798 191.529 267.543C192.874 266.249 191.729 264.457 191.331 262.968C188.682 253.035 175.609 208.501 172.84 198.551C172.232 196.37 171.514 195.506 169.67 195.683C155.138 197.065 140.6 198.315 126.063 199.592C116.511 200.431 106.958 201.248 97.4053 202.076C92.4259 202.482 87.4448 202.866 82.4662 203.301C79.5918 203.554 76.7241 204.012 73.8473 204.136C72.0392 204.213 71.6346 204.923 72.3029 207.187ZM128.737 220.577C128.75 220.576 128.763 220.576 128.777 220.576C128.774 220.588 128.772 220.602 128.77 220.615C128.759 220.601 128.747 220.591 128.737 220.577ZM133.268 229.943C133.268 229.944 133.267 229.944 133.266 229.944V229.942C133.268 229.942 133.268 229.942 133.268 229.943ZM129.932 248.238C129.906 248.191 129.879 248.146 129.853 248.098C129.872 248.089 129.887 248.076 129.904 248.066C129.912 248.126 129.923 248.181 129.932 248.238ZM120.263 234.629C120.28 234.63 120.298 234.631 120.315 234.633C120.293 234.641 120.274 234.653 120.253 234.664C120.255 234.651 120.258 234.64 120.263 234.629Z" fill="#40BDA9"/>
<path fill-rule="evenodd" clip-rule="evenodd" d="M93.2738 271.563C97.4739 271.173 101.678 270.864 105.881 270.524C115.413 269.644 124.946 268.761 134.48 267.887C136.128 267.736 136.993 268.877 137.118 270.971C137.234 272.947 136.548 274.257 134.997 274.394C126.024 275.182 117.047 275.927 108.071 276.687C107.464 277.011 106.835 276.896 106.21 276.88C101.944 277.324 97.6809 277.801 93.4106 278.103C92.0014 278.202 91.3806 276.798 91.3731 274.901C91.3665 273.078 91.7578 271.704 93.2738 271.563Z" fill="#40BDA9"/>
<path fill-rule="evenodd" clip-rule="evenodd" d="M286.427 342.374L248.872 362.874C248.872 362.874 223.837 315 238.385 302.902C249.826 293.39 272.851 294.227 286.427 342.374Z" fill="#5E55A4"/>
<path fill-rule="evenodd" clip-rule="evenodd" d="M266.47 111.264C270.616 130.841 274.707 150.447 278.817 170.041C279.213 171.933 279.719 173.777 279.987 175.718C280.3 177.992 281.027 178.712 282.483 178.563C288.102 177.991 293.723 177.599 299.342 177.113C299.724 177.081 300.105 176.826 300.485 176.676C309.335 175.945 318.186 175.214 327.037 174.475C333.313 173.952 359.139 172.209 360.369 172.456C365.293 173.445 369.535 176.647 373.373 181.42C374.243 182.503 375.128 184.689 376.393 183.303C377.703 181.869 376.689 179.8 376.368 178.097C374.227 166.733 363.499 115.751 361.245 104.365C360.75 101.87 360.107 100.868 358.366 101.014C344.663 102.164 330.957 103.162 317.253 104.192C308.248 104.868 299.243 105.521 290.238 106.185C285.545 106.5 280.85 106.793 276.158 107.145C273.446 107.347 270.736 107.786 268.03 107.842C266.328 107.877 265.921 108.672 266.47 111.264ZM319.031 128.116C319.044 128.116 319.056 128.116 319.067 128.114C319.066 128.129 319.063 128.142 319.062 128.158C319.051 128.143 319.042 128.13 319.031 128.116ZM322.962 138.888C322.962 138.888 322.962 138.888 322.961 138.89C322.96 138.89 322.96 138.886 322.96 138.886C322.961 138.887 322.962 138.887 322.962 138.888ZM319.187 159.581C319.165 159.525 319.141 159.476 319.119 159.418C319.137 159.409 319.152 159.395 319.168 159.385C319.173 159.453 319.182 159.514 319.187 159.581ZM310.578 143.837C310.595 143.837 310.61 143.84 310.624 143.842C310.605 143.852 310.588 143.865 310.568 143.876C310.57 143.862 310.573 143.85 310.578 143.837Z" fill="#F05169"/>
<path fill-rule="evenodd" clip-rule="evenodd" d="M283.925 185.023C287.885 184.699 291.848 184.473 295.808 184.207C304.798 183.484 313.785 182.756 322.775 182.04C324.33 181.915 325.102 183.237 325.147 185.621C325.184 187.868 324.493 189.339 323.033 189.447C314.575 190.084 306.112 190.67 297.652 191.275C297.069 191.625 296.482 191.477 295.897 191.439C291.873 191.82 287.85 192.239 283.828 192.458C282.499 192.529 281.964 190.917 282.023 188.759C282.081 186.687 282.494 185.138 283.925 185.023Z" fill="#F05169"/>
<path d="M310.129 120.076C303.802 120.873 299.303 126.674 300.1 133.008L302.132 149.177C302.928 155.51 308.722 160.014 315.049 159.218L333.376 156.91C339.703 156.112 344.201 150.311 343.405 143.978L341.373 127.81C340.576 121.475 334.782 116.972 328.455 117.768L310.129 120.076ZM333.786 160.189L315.46 162.499C307.326 163.523 299.875 157.734 298.851 149.59L296.819 133.421C295.795 125.278 301.582 117.819 309.717 116.794L328.043 114.485C336.177 113.46 343.628 119.254 344.653 127.396L346.685 143.566C347.707 151.708 341.923 159.165 333.786 160.189Z" fill="white"/>
<path d="M320.514 128.629C315.081 129.314 311.216 134.295 311.899 139.733C312.583 145.173 317.56 149.042 322.993 148.358C328.425 147.673 332.288 142.692 331.605 137.252C330.921 131.813 325.945 127.945 320.514 128.629ZM323.405 151.639C316.163 152.549 309.531 147.395 308.621 140.147C307.71 132.899 312.859 126.258 320.099 125.348C327.34 124.436 333.974 129.59 334.884 136.838C335.793 144.086 330.644 150.726 323.405 151.639Z" fill="white"/>
<path d="M335.805 123.78C335.995 125.285 334.929 126.661 333.424 126.849C331.919 127.038 330.546 125.973 330.356 124.466C330.167 122.959 331.234 121.584 332.738 121.394C334.244 121.205 335.616 122.273 335.805 123.78Z" fill="white"/>
<path d="M246.635 247.065C246.635 239.582 253.735 241.453 262.341 243.323C263.81 243.643 265.266 243.728 266.674 243.66C265.982 245.345 262.978 253.349 262.978 265.181C262.978 265.443 262.969 265.691 262.964 265.942C261.472 266.125 259.859 266.647 258.22 267.731C251.867 271.937 246.635 254.548 246.635 247.065Z" fill="#F79D83"/>
<path fill-rule="evenodd" clip-rule="evenodd" d="M184.013 176.319C186.357 183.011 188.701 189.704 191.046 196.395C192.227 200.27 195.697 213.975 197.237 216.648C198.391 216.775 289.771 207.236 300.949 206.984C304.186 206.911 304.353 206.682 303.358 203.584C300.541 194.816 297.727 186.046 294.911 177.277C291.3 166.342 287.703 155.405 284.053 144.484C283.746 143.566 283.819 142.385 282.713 141.847C281.882 141.22 280.915 141.483 280.011 141.483C253.836 141.492 227.662 141.517 201.487 141.542C205.099 151.337 208.714 161.13 212.321 170.927C213.526 174.198 213.385 174.311 209.966 174.529C201.312 175.084 192.664 175.718 184.013 176.319ZM243.897 175.59C243.872 175.586 243.844 175.585 243.819 175.58C243.837 175.574 243.855 175.57 243.872 175.563C243.88 175.571 243.888 175.582 243.897 175.59ZM243.272 185.681C243.274 185.692 243.278 185.703 243.282 185.715C243.273 185.706 243.269 185.698 243.263 185.689C243.266 185.687 243.269 185.684 243.272 185.681Z" fill="#00BBEA"/>
<path d="M213.506 265.397C230.455 273.674 238.039 260.907 238.039 260.907C238.039 260.907 237.909 258.662 236.041 254.547C234.173 250.432 238.788 247.812 241.5 250.706C244.213 253.598 245.514 266.144 246.636 272.124C247.756 278.103 249.124 278.108 249.124 278.108C243.024 278.108 241.852 296.759 241.852 296.759L208.516 288.596C208.516 288.596 213.506 278.865 213.506 270.356C213.506 268.98 213.334 267.21 213.048 265.154C213.201 265.236 213.354 265.322 213.506 265.397Z" fill="#F79D83"/>
<path d="M262.963 265.942C267.258 265.418 270.553 267.731 270.553 267.731C270.553 267.731 267.253 283.384 253.206 278.693L249.123 278.108C255.104 278.108 262.669 278.523 262.963 265.942Z" fill="#E5DBED"/>
<path d="M246.635 272.125C245.514 266.145 244.212 253.599 241.5 250.706C238.787 247.813 234.172 250.432 236.04 254.548C237.909 258.663 238.039 260.908 238.039 260.908C238.039 260.908 230.455 273.675 213.505 265.398C213.353 265.323 213.201 265.237 213.047 265.155C211.566 254.507 206.99 236.101 206.99 223.872C206.99 209.285 226.08 205.536 242.944 208.02C259.807 210.503 275.784 204.788 275.784 204.788C275.784 204.788 279.148 210.775 279.148 223.871C279.148 236.969 266.816 243.323 266.816 243.323C266.816 243.323 266.762 243.441 266.674 243.66C265.265 243.729 263.81 243.643 262.341 243.323C253.735 241.453 246.635 239.582 246.635 247.065C246.635 254.548 251.867 271.937 258.22 267.732C259.858 266.648 261.471 266.125 262.963 265.943C262.669 278.524 255.105 278.109 249.124 278.109C249.123 278.108 247.756 278.104 246.635 272.125Z" fill="#1D283E"/>
<path d="M180.904 142.071C178.211 130.079 166.318 122.544 154.341 125.239C142.362 127.935 134.834 139.841 137.526 151.832C140.219 163.823 152.111 171.36 164.09 168.664C164.152 168.651 164.211 168.631 164.274 168.618L160.873 153.47L155.65 154.646L154.29 148.591L159.513 147.416L158.511 142.951C157.347 137.77 159.876 134.238 164.49 133.199C166.703 132.701 168.641 132.439 169.211 132.388L170.427 137.801L167.225 138.523C164.714 139.088 164.496 140.392 164.89 142.145L165.758 146.01L171.745 144.662L172.326 150.892L167.117 152.065L170.302 166.246C178.523 161.514 183.092 151.821 180.904 142.071Z" fill="#3C3E98"/>
<path d="M172.326 150.893L171.746 144.663L165.758 146.01L164.891 142.146C164.496 140.393 164.714 139.089 167.225 138.524L170.427 137.802L169.212 132.389C168.642 132.439 166.704 132.702 164.49 133.2C159.876 134.239 157.347 137.771 158.511 142.952L159.514 147.417L154.291 148.592L155.651 154.646L160.874 153.47L164.275 168.618C166.443 168.111 168.465 167.304 170.303 166.247L167.118 152.065L172.326 150.893Z" fill="white"/>
<path d="M130.99 257.593C126.062 257.593 121.233 256.291 116.953 253.813L105.99 257.593L108.243 245.972C104.711 241.124 102.848 235.422 102.848 229.423C102.848 213.888 115.473 201.251 130.99 201.251C146.508 201.251 159.13 213.888 159.13 229.423C159.13 244.956 146.508 257.593 130.99 257.593Z" fill="#40BDA9"/>
<path d="M122.15 242.346L122.704 242.694C125.202 244.261 128.067 245.09 130.99 245.09C139.62 245.09 146.64 238.062 146.64 229.422C146.64 220.786 139.62 213.757 130.99 213.757C122.361 213.757 115.341 220.786 115.341 229.422C115.341 232.937 116.491 236.268 118.664 239.053L119.049 239.545L118.243 243.694L122.15 242.346ZM130.99 247.826C127.771 247.826 124.614 246.974 121.82 245.355L114.658 247.826L116.129 240.234C113.823 237.067 112.604 233.343 112.604 229.421C112.604 219.273 120.853 211.019 130.99 211.019C141.125 211.019 149.374 219.273 149.374 229.421C149.374 239.57 141.125 247.826 130.99 247.826Z" fill="white"/>
<path d="M121.708 222.351C121.708 222.351 122.786 220.463 123.666 220.355C124.546 220.248 125.677 220.248 125.984 220.823C126.289 221.398 127.652 224.741 127.652 224.741C127.652 224.741 127.886 225.317 127.528 225.875C127.168 226.43 126.359 227.24 126.359 227.24C126.359 227.24 125.91 227.816 126.359 228.425C126.808 229.038 127.505 230.161 128.946 231.602C130.385 233.043 133.148 234.072 133.148 234.072C133.148 234.072 133.543 234.125 133.796 233.874C134.046 233.621 135.411 231.915 135.411 231.915C135.411 231.915 135.85 231.348 136.578 231.681C137.306 232.013 140.456 233.587 140.456 233.587C140.456 233.587 140.826 233.721 140.826 234.279C140.826 234.836 140.601 236.201 140.14 236.66C139.679 237.123 138.333 238.544 136.308 238.544C134.284 238.544 129.465 236.895 126.897 234.326C124.329 231.752 122.048 229.145 121.51 226.773C120.972 224.4 121.046 223.328 121.708 222.351Z" fill="white"/>
<path d="M272.394 173.089C273.739 188.812 262.096 202.651 246.389 203.998C230.684 205.345 216.861 193.689 215.515 177.966C214.17 162.242 225.812 148.402 241.519 147.056C257.224 145.709 271.048 157.365 272.394 173.089Z" fill="#00BBEA"/>
<path d="M259.966 164.235C259.248 164.502 258.667 164.519 258.667 164.519L258.679 164.378C259.316 163.771 260.897 161.941 261.058 161.136C261.126 160.788 260.999 160.68 260.998 160.67L258.877 161.795L257.105 162.786C255.717 161.545 253.716 160.852 251.565 161.036C247.732 161.366 244.86 164.349 245.146 167.7C245.198 168.315 245.385 169.425 245.625 169.967C245.639 170.143 245.618 169.789 245.625 169.967C243.152 170.112 239.905 169.37 236.965 168.182C231.169 165.84 230.655 163.921 230.655 163.921C229.863 164.921 229.674 168.031 230.766 170.364C231.462 171.856 233.527 173.074 233.527 173.074C233.527 173.074 232.659 173.162 231.72 172.933C230.784 172.703 230.412 172.428 230.412 172.428C229.983 173.797 231.274 176.066 233.296 177.601C234.477 178.497 236.531 178.944 236.531 178.944L233.414 179.301C233.497 182.358 240.2 183.603 240.2 183.603C238.408 185.246 236.258 186.337 233.87 186.541C232.633 186.647 231.422 186.564 230.259 186.322C233.634 188.652 237.841 190.101 242.229 189.49C253.867 187.874 259.606 177.246 259.075 167.338L259.093 167.357C259.093 167.357 259.618 167.035 260.687 165.764C261.755 164.491 262.368 163.056 262.368 163.056C262.368 163.056 260.682 163.97 259.966 164.235Z" fill="white"/>
</g>
<path d="M37.12 41.06V42.54H33.32V55H31.5V42.54H27.68V41.06H37.12ZM44.1403 55.18C43.1136 55.18 42.1803 54.9467 41.3403 54.48C40.5136 54.0133 39.8603 53.3533 39.3803 52.5C38.9136 51.6333 38.6803 50.6333 38.6803 49.5C38.6803 48.38 38.9203 47.3933 39.4003 46.54C39.8936 45.6733 40.5603 45.0133 41.4003 44.56C42.2403 44.0933 43.1803 43.86 44.2203 43.86C45.2603 43.86 46.2003 44.0933 47.0403 44.56C47.8803 45.0133 48.5403 45.6667 49.0203 46.52C49.5136 47.3733 49.7603 48.3667 49.7603 49.5C49.7603 50.6333 49.507 51.6333 49.0003 52.5C48.507 53.3533 47.8336 54.0133 46.9803 54.48C46.127 54.9467 45.1803 55.18 44.1403 55.18ZM44.1403 53.58C44.7936 53.58 45.407 53.4267 45.9803 53.12C46.5536 52.8133 47.0136 52.3533 47.3603 51.74C47.7203 51.1267 47.9003 50.38 47.9003 49.5C47.9003 48.62 47.727 47.8733 47.3803 47.26C47.0336 46.6467 46.5803 46.1933 46.0203 45.9C45.4603 45.5933 44.8536 45.44 44.2003 45.44C43.5336 45.44 42.9203 45.5933 42.3603 45.9C41.8136 46.1933 41.3736 46.6467 41.0403 47.26C40.707 47.8733 40.5403 48.62 40.5403 49.5C40.5403 50.3933 40.7003 51.1467 41.0203 51.76C41.3536 52.3733 41.7936 52.8333 42.3403 53.14C42.887 53.4333 43.487 53.58 44.1403 53.58ZM59.3053 46.06C59.6653 45.4333 60.1986 44.9133 60.9053 44.5C61.6253 44.0733 62.4586 43.86 63.4053 43.86C64.3786 43.86 65.2586 44.0933 66.0453 44.56C66.8453 45.0267 67.472 45.6867 67.9253 46.54C68.3786 47.38 68.6053 48.36 68.6053 49.48C68.6053 50.5867 68.3786 51.5733 67.9253 52.44C67.472 53.3067 66.8453 53.98 66.0453 54.46C65.2586 54.94 64.3786 55.18 63.4053 55.18C62.472 55.18 61.6453 54.9733 60.9253 54.56C60.2186 54.1333 59.6786 53.6067 59.3053 52.98V60.2H57.4853V44.04H59.3053V46.06ZM66.7453 49.48C66.7453 48.6533 66.5786 47.9333 66.2453 47.32C65.912 46.7067 65.4586 46.24 64.8853 45.92C64.3253 45.6 63.7053 45.44 63.0253 45.44C62.3586 45.44 61.7386 45.6067 61.1653 45.94C60.6053 46.26 60.152 46.7333 59.8053 47.36C59.472 47.9733 59.3053 48.6867 59.3053 49.5C59.3053 50.3267 59.472 51.0533 59.8053 51.68C60.152 52.2933 60.6053 52.7667 61.1653 53.1C61.7386 53.42 62.3586 53.58 63.0253 53.58C63.7053 53.58 64.3253 53.42 64.8853 53.1C65.4586 52.7667 65.912 52.2933 66.2453 51.68C66.5786 51.0533 66.7453 50.32 66.7453 49.48ZM72.8209 45.82C73.1409 45.1933 73.5943 44.7067 74.1809 44.36C74.7809 44.0133 75.5076 43.84 76.3609 43.84V45.72H75.8809C73.8409 45.72 72.8209 46.8267 72.8209 49.04V55H71.0009V44.04H72.8209V45.82ZM83.2419 55.18C82.2152 55.18 81.2819 54.9467 80.4419 54.48C79.6152 54.0133 78.9619 53.3533 78.4819 52.5C78.0152 51.6333 77.7819 50.6333 77.7819 49.5C77.7819 48.38 78.0219 47.3933 78.5019 46.54C78.9952 45.6733 79.6619 45.0133 80.5019 44.56C81.3419 44.0933 82.2819 43.86 83.3219 43.86C84.3619 43.86 85.3019 44.0933 86.1419 44.56C86.9819 45.0133 87.6419 45.6667 88.1219 46.52C88.6152 47.3733 88.8619 48.3667 88.8619 49.5C88.8619 50.6333 88.6085 51.6333 88.1019 52.5C87.6085 53.3533 86.9352 54.0133 86.0819 54.48C85.2285 54.9467 84.2819 55.18 83.2419 55.18ZM83.2419 53.58C83.8952 53.58 84.5085 53.4267 85.0819 53.12C85.6552 52.8133 86.1152 52.3533 86.4619 51.74C86.8219 51.1267 87.0019 50.38 87.0019 49.5C87.0019 48.62 86.8285 47.8733 86.4819 47.26C86.1352 46.6467 85.6819 46.1933 85.1219 45.9C84.5619 45.5933 83.9552 45.44 83.3019 45.44C82.6352 45.44 82.0219 45.5933 81.4619 45.9C80.9152 46.1933 80.4752 46.6467 80.1419 47.26C79.8085 47.8733 79.6419 48.62 79.6419 49.5C79.6419 50.3933 79.8019 51.1467 80.1219 51.76C80.4552 52.3733 80.8952 52.8333 81.4419 53.14C81.9885 53.4333 82.5885 53.58 83.2419 53.58ZM90.5748 49.5C90.5748 48.3667 90.8015 47.38 91.2548 46.54C91.7082 45.6867 92.3348 45.0267 93.1348 44.56C93.9482 44.0933 94.8748 43.86 95.9148 43.86C97.2615 43.86 98.3682 44.1867 99.2348 44.84C100.115 45.4933 100.695 46.4 100.975 47.56H99.0148C98.8282 46.8933 98.4615 46.3667 97.9148 45.98C97.3815 45.5933 96.7148 45.4 95.9148 45.4C94.8748 45.4 94.0348 45.76 93.3948 46.48C92.7548 47.1867 92.4348 48.1933 92.4348 49.5C92.4348 50.82 92.7548 51.84 93.3948 52.56C94.0348 53.28 94.8748 53.64 95.9148 53.64C96.7148 53.64 97.3815 53.4533 97.9148 53.08C98.4482 52.7067 98.8148 52.1733 99.0148 51.48H100.975C100.682 52.6 100.095 53.5 99.2148 54.18C98.3348 54.8467 97.2348 55.18 95.9148 55.18C94.8748 55.18 93.9482 54.9467 93.1348 54.48C92.3348 54.0133 91.7082 53.3533 91.2548 52.5C90.8015 51.6467 90.5748 50.6467 90.5748 49.5ZM113.403 49.1C113.403 49.4467 113.383 49.8133 113.343 50.2H104.583C104.65 51.28 105.017 52.1267 105.683 52.74C106.363 53.34 107.183 53.64 108.143 53.64C108.93 53.64 109.583 53.46 110.103 53.1C110.637 52.7267 111.01 52.2333 111.223 51.62H113.183C112.89 52.6733 112.303 53.5333 111.423 54.2C110.543 54.8533 109.45 55.18 108.143 55.18C107.103 55.18 106.17 54.9467 105.343 54.48C104.53 54.0133 103.89 53.3533 103.423 52.5C102.957 51.6333 102.723 50.6333 102.723 49.5C102.723 48.3667 102.95 47.3733 103.403 46.52C103.857 45.6667 104.49 45.0133 105.303 44.56C106.13 44.0933 107.077 43.86 108.143 43.86C109.183 43.86 110.103 44.0867 110.903 44.54C111.703 44.9933 112.317 45.62 112.743 46.42C113.183 47.2067 113.403 48.1 113.403 49.1ZM111.523 48.72C111.523 48.0267 111.37 47.4333 111.063 46.94C110.757 46.4333 110.337 46.0533 109.803 45.8C109.283 45.5333 108.703 45.4 108.063 45.4C107.143 45.4 106.357 45.6933 105.703 46.28C105.063 46.8667 104.697 47.68 104.603 48.72H111.523ZM125.806 49.1C125.806 49.4467 125.786 49.8133 125.746 50.2H116.986C117.052 51.28 117.419 52.1267 118.086 52.74C118.766 53.34 119.586 53.64 120.546 53.64C121.332 53.64 121.986 53.46 122.506 53.1C123.039 52.7267 123.412 52.2333 123.626 51.62H125.586C125.292 52.6733 124.706 53.5333 123.826 54.2C122.946 54.8533 121.852 55.18 120.546 55.18C119.506 55.18 118.572 54.9467 117.746 54.48C116.932 54.0133 116.292 53.3533 115.826 52.5C115.359 51.6333 115.126 50.6333 115.126 49.5C115.126 48.3667 115.352 47.3733 115.806 46.52C116.259 45.6667 116.892 45.0133 117.706 44.56C118.532 44.0933 119.479 43.86 120.546 43.86C121.586 43.86 122.506 44.0867 123.306 44.54C124.106 44.9933 124.719 45.62 125.146 46.42C125.586 47.2067 125.806 48.1 125.806 49.1ZM123.926 48.72C123.926 48.0267 123.772 47.4333 123.466 46.94C123.159 46.4333 122.739 46.0533 122.206 45.8C121.686 45.5333 121.106 45.4 120.466 45.4C119.546 45.4 118.759 45.6933 118.106 46.28C117.466 46.8667 117.099 47.68 117.006 48.72H123.926ZM127.528 49.48C127.528 48.36 127.755 47.38 128.208 46.54C128.661 45.6867 129.281 45.0267 130.068 44.56C130.868 44.0933 131.761 43.86 132.748 43.86C133.601 43.86 134.395 44.06 135.128 44.46C135.861 44.8467 136.421 45.36 136.808 46V40.2H138.648V55H136.808V52.94C136.448 53.5933 135.915 54.1333 135.208 54.56C134.501 54.9733 133.675 55.18 132.728 55.18C131.755 55.18 130.868 54.94 130.068 54.46C129.281 53.98 128.661 53.3067 128.208 52.44C127.755 51.5733 127.528 50.5867 127.528 49.48ZM136.808 49.5C136.808 48.6733 136.641 47.9533 136.308 47.34C135.975 46.7267 135.521 46.26 134.948 45.94C134.388 45.6067 133.768 45.44 133.088 45.44C132.408 45.44 131.788 45.6 131.228 45.92C130.668 46.24 130.221 46.7067 129.888 47.32C129.555 47.9333 129.388 48.6533 129.388 49.48C129.388 50.32 129.555 51.0533 129.888 51.68C130.221 52.2933 130.668 52.7667 131.228 53.1C131.788 53.42 132.408 53.58 133.088 53.58C133.768 53.58 134.388 53.42 134.948 53.1C135.521 52.7667 135.975 52.2933 136.308 51.68C136.641 51.0533 136.808 50.3267 136.808 49.5ZM151.516 45.54H149.216V55H147.396V45.54H145.976V44.04H147.396V43.26C147.396 42.0333 147.709 41.14 148.336 40.58C148.976 40.0067 149.996 39.72 151.396 39.72V41.24C150.596 41.24 150.029 41.4 149.696 41.72C149.376 42.0267 149.216 42.54 149.216 43.26V44.04H151.516V45.54ZM163.358 44.04V55H161.538V53.38C161.191 53.94 160.704 54.38 160.078 54.7C159.464 55.0067 158.784 55.16 158.038 55.16C157.184 55.16 156.418 54.9867 155.738 54.64C155.058 54.28 154.518 53.7467 154.118 53.04C153.731 52.3333 153.538 51.4733 153.538 50.46V44.04H155.338V50.22C155.338 51.3 155.611 52.1333 156.158 52.72C156.704 53.2933 157.451 53.58 158.398 53.58C159.371 53.58 160.138 53.28 160.698 52.68C161.258 52.08 161.538 51.2067 161.538 50.06V44.04H163.358ZM168.251 45.82C168.571 45.1933 169.024 44.7067 169.611 44.36C170.211 44.0133 170.937 43.84 171.791 43.84V45.72H171.311C169.271 45.72 168.251 46.8267 168.251 49.04V55H166.431V44.04H168.251V45.82ZM176.112 45.54V52C176.112 52.5333 176.225 52.9133 176.452 53.14C176.678 53.3533 177.072 53.46 177.632 53.46H178.972V55H177.332C176.318 55 175.558 54.7667 175.052 54.3C174.545 53.8333 174.292 53.0667 174.292 52V45.54H172.872V44.04H174.292V41.28H176.112V44.04H178.972V45.54H176.112ZM186.617 43.84C187.443 43.84 188.19 44.02 188.857 44.38C189.523 44.7267 190.043 45.2533 190.417 45.96C190.803 46.6667 190.997 47.5267 190.997 48.54V55H189.197V48.8C189.197 47.7067 188.923 46.8733 188.377 46.3C187.83 45.7133 187.083 45.42 186.137 45.42C185.177 45.42 184.41 45.72 183.837 46.32C183.277 46.92 182.997 47.7933 182.997 48.94V55H181.177V40.2H182.997V45.6C183.357 45.04 183.85 44.6067 184.477 44.3C185.117 43.9933 185.83 43.84 186.617 43.84ZM203.97 49.1C203.97 49.4467 203.95 49.8133 203.91 50.2H195.15C195.216 51.28 195.583 52.1267 196.25 52.74C196.93 53.34 197.75 53.64 198.71 53.64C199.496 53.64 200.15 53.46 200.67 53.1C201.203 52.7267 201.576 52.2333 201.79 51.62H203.75C203.456 52.6733 202.87 53.5333 201.99 54.2C201.11 54.8533 200.016 55.18 198.71 55.18C197.67 55.18 196.736 54.9467 195.91 54.48C195.096 54.0133 194.456 53.3533 193.99 52.5C193.523 51.6333 193.29 50.6333 193.29 49.5C193.29 48.3667 193.516 47.3733 193.97 46.52C194.423 45.6667 195.056 45.0133 195.87 44.56C196.696 44.0933 197.643 43.86 198.71 43.86C199.75 43.86 200.67 44.0867 201.47 44.54C202.27 44.9933 202.883 45.62 203.31 46.42C203.75 47.2067 203.97 48.1 203.97 49.1ZM202.09 48.72C202.09 48.0267 201.936 47.4333 201.63 46.94C201.323 46.4333 200.903 46.0533 200.37 45.8C199.85 45.5333 199.27 45.4 198.63 45.4C197.71 45.4 196.923 45.6933 196.27 46.28C195.63 46.8667 195.263 47.68 195.17 48.72H202.09ZM208.192 45.82C208.512 45.1933 208.965 44.7067 209.552 44.36C210.152 44.0133 210.879 43.84 211.732 43.84V45.72H211.252C209.212 45.72 208.192 46.8267 208.192 49.04V55H206.372V44.04H208.192V45.82ZM223.585 55.14C222.665 55.14 221.838 54.98 221.105 54.66C220.385 54.3267 219.818 53.8733 219.405 53.3C218.992 52.7133 218.778 52.04 218.765 51.28H220.705C220.772 51.9333 221.038 52.4867 221.505 52.94C221.985 53.38 222.678 53.6 223.585 53.6C224.452 53.6 225.132 53.3867 225.625 52.96C226.132 52.52 226.385 51.96 226.385 51.28C226.385 50.7467 226.238 50.3133 225.945 49.98C225.652 49.6467 225.285 49.3933 224.845 49.22C224.405 49.0467 223.812 48.86 223.065 48.66C222.145 48.42 221.405 48.18 220.845 47.94C220.298 47.7 219.825 47.3267 219.425 46.82C219.038 46.3 218.845 45.6067 218.845 44.74C218.845 43.98 219.038 43.3067 219.425 42.72C219.812 42.1333 220.352 41.68 221.045 41.36C221.752 41.04 222.558 40.88 223.465 40.88C224.772 40.88 225.838 41.2067 226.665 41.86C227.505 42.5133 227.978 43.38 228.085 44.46H226.085C226.018 43.9267 225.738 43.46 225.245 43.06C224.752 42.6467 224.098 42.44 223.285 42.44C222.525 42.44 221.905 42.64 221.425 43.04C220.945 43.4267 220.705 43.9733 220.705 44.68C220.705 45.1867 220.845 45.6 221.125 45.92C221.418 46.24 221.772 46.4867 222.185 46.66C222.612 46.82 223.205 47.0067 223.965 47.22C224.885 47.4733 225.625 47.7267 226.185 47.98C226.745 48.22 227.225 48.6 227.625 49.12C228.025 49.6267 228.225 50.32 228.225 51.2C228.225 51.88 228.045 52.52 227.685 53.12C227.325 53.72 226.792 54.2067 226.085 54.58C225.378 54.9533 224.545 55.14 223.585 55.14ZM240.903 49.1C240.903 49.4467 240.883 49.8133 240.843 50.2H232.083C232.15 51.28 232.517 52.1267 233.183 52.74C233.863 53.34 234.683 53.64 235.643 53.64C236.43 53.64 237.083 53.46 237.603 53.1C238.137 52.7267 238.51 52.2333 238.723 51.62H240.683C240.39 52.6733 239.803 53.5333 238.923 54.2C238.043 54.8533 236.95 55.18 235.643 55.18C234.603 55.18 233.67 54.9467 232.843 54.48C232.03 54.0133 231.39 53.3533 230.923 52.5C230.457 51.6333 230.223 50.6333 230.223 49.5C230.223 48.3667 230.45 47.3733 230.903 46.52C231.357 45.6667 231.99 45.0133 232.803 44.56C233.63 44.0933 234.577 43.86 235.643 43.86C236.683 43.86 237.603 44.0867 238.403 44.54C239.203 44.9933 239.817 45.62 240.243 46.42C240.683 47.2067 240.903 48.1 240.903 49.1ZM239.023 48.72C239.023 48.0267 238.87 47.4333 238.563 46.94C238.257 46.4333 237.837 46.0533 237.303 45.8C236.783 45.5333 236.203 45.4 235.563 45.4C234.643 45.4 233.857 45.6933 233.203 46.28C232.563 46.8667 232.197 47.68 232.103 48.72H239.023ZM245.126 40.2V55H243.306V40.2H245.126ZM258.228 49.1C258.228 49.4467 258.208 49.8133 258.168 50.2H249.408C249.474 51.28 249.841 52.1267 250.508 52.74C251.188 53.34 252.008 53.64 252.968 53.64C253.754 53.64 254.408 53.46 254.928 53.1C255.461 52.7267 255.834 52.2333 256.048 51.62H258.008C257.714 52.6733 257.128 53.5333 256.248 54.2C255.368 54.8533 254.274 55.18 252.968 55.18C251.928 55.18 250.994 54.9467 250.168 54.48C249.354 54.0133 248.714 53.3533 248.248 52.5C247.781 51.6333 247.548 50.6333 247.548 49.5C247.548 48.3667 247.774 47.3733 248.228 46.52C248.681 45.6667 249.314 45.0133 250.128 44.56C250.954 44.0933 251.901 43.86 252.968 43.86C254.008 43.86 254.928 44.0867 255.728 44.54C256.528 44.9933 257.141 45.62 257.568 46.42C258.008 47.2067 258.228 48.1 258.228 49.1ZM256.348 48.72C256.348 48.0267 256.194 47.4333 255.888 46.94C255.581 46.4333 255.161 46.0533 254.628 45.8C254.108 45.5333 253.528 45.4 252.888 45.4C251.968 45.4 251.181 45.6933 250.528 46.28C249.888 46.8667 249.521 47.68 249.428 48.72H256.348ZM259.95 49.5C259.95 48.3667 260.177 47.38 260.63 46.54C261.083 45.6867 261.71 45.0267 262.51 44.56C263.323 44.0933 264.25 43.86 265.29 43.86C266.637 43.86 267.743 44.1867 268.61 44.84C269.49 45.4933 270.07 46.4 270.35 47.56H268.39C268.203 46.8933 267.837 46.3667 267.29 45.98C266.757 45.5933 266.09 45.4 265.29 45.4C264.25 45.4 263.41 45.76 262.77 46.48C262.13 47.1867 261.81 48.1933 261.81 49.5C261.81 50.82 262.13 51.84 262.77 52.56C263.41 53.28 264.25 53.64 265.29 53.64C266.09 53.64 266.757 53.4533 267.29 53.08C267.823 52.7067 268.19 52.1733 268.39 51.48H270.35C270.057 52.6 269.47 53.5 268.59 54.18C267.71 54.8467 266.61 55.18 265.29 55.18C264.25 55.18 263.323 54.9467 262.51 54.48C261.71 54.0133 261.083 53.3533 260.63 52.5C260.177 51.6467 259.95 50.6467 259.95 49.5ZM274.998 45.54V52C274.998 52.5333 275.112 52.9133 275.338 53.14C275.565 53.3533 275.958 53.46 276.518 53.46H277.858V55H276.218C275.205 55 274.445 54.7667 273.938 54.3C273.432 53.8333 273.178 53.0667 273.178 52V45.54H271.758V44.04H273.178V41.28H274.998V44.04H277.858V45.54H274.998ZM284.715 49.48C284.715 48.36 284.942 47.38 285.395 46.54C285.849 45.6867 286.469 45.0267 287.255 44.56C288.055 44.0933 288.942 43.86 289.915 43.86C290.875 43.86 291.709 44.0667 292.415 44.48C293.122 44.8933 293.649 45.4133 293.995 46.04V44.04H295.835V55H293.995V52.96C293.635 53.6 293.095 54.1333 292.375 54.56C291.669 54.9733 290.842 55.18 289.895 55.18C288.922 55.18 288.042 54.94 287.255 54.46C286.469 53.98 285.849 53.3067 285.395 52.44C284.942 51.5733 284.715 50.5867 284.715 49.48ZM293.995 49.5C293.995 48.6733 293.829 47.9533 293.495 47.34C293.162 46.7267 292.709 46.26 292.135 45.94C291.575 45.6067 290.955 45.44 290.275 45.44C289.595 45.44 288.975 45.6 288.415 45.92C287.855 46.24 287.409 46.7067 287.075 47.32C286.742 47.9333 286.575 48.6533 286.575 49.48C286.575 50.32 286.742 51.0533 287.075 51.68C287.409 52.2933 287.855 52.7667 288.415 53.1C288.975 53.42 289.595 53.58 290.275 53.58C290.955 53.58 291.575 53.42 292.135 53.1C292.709 52.7667 293.162 52.2933 293.495 51.68C293.829 51.0533 293.995 50.3267 293.995 49.5ZM304.251 43.84C305.584 43.84 306.664 44.2467 307.491 45.06C308.318 45.86 308.731 47.02 308.731 48.54V55H306.931V48.8C306.931 47.7067 306.658 46.8733 306.111 46.3C305.564 45.7133 304.818 45.42 303.871 45.42C302.911 45.42 302.144 45.72 301.571 46.32C301.011 46.92 300.731 47.7933 300.731 48.94V55H298.911V44.04H300.731V45.6C301.091 45.04 301.578 44.6067 302.191 44.3C302.818 43.9933 303.504 43.84 304.251 43.84ZM321.144 44.04L314.544 60.16H312.664L314.824 54.88L310.404 44.04H312.424L315.864 52.92L319.264 44.04H321.144ZM327.966 44.18C328.059 42.9533 328.532 41.9933 329.386 41.3C330.239 40.6067 331.346 40.26 332.706 40.26C333.612 40.26 334.392 40.4267 335.046 40.76C335.712 41.08 336.212 41.52 336.546 42.08C336.892 42.64 337.066 43.2733 337.066 43.98C337.066 44.8067 336.826 45.52 336.346 46.12C335.879 46.72 335.266 47.1067 334.506 47.28V47.38C335.372 47.5933 336.059 48.0133 336.566 48.64C337.072 49.2667 337.326 50.0867 337.326 51.1C337.326 51.86 337.152 52.5467 336.806 53.16C336.459 53.76 335.939 54.2333 335.246 54.58C334.552 54.9267 333.719 55.1 332.746 55.1C331.332 55.1 330.172 54.7333 329.266 54C328.359 53.2533 327.852 52.2 327.746 50.84H329.506C329.599 51.64 329.926 52.2933 330.486 52.8C331.046 53.3067 331.792 53.56 332.726 53.56C333.659 53.56 334.366 53.32 334.846 52.84C335.339 52.3467 335.586 51.7133 335.586 50.94C335.586 49.94 335.252 49.22 334.586 48.78C333.919 48.34 332.912 48.12 331.566 48.12H331.106V46.6H331.586C332.812 46.5867 333.739 46.3867 334.366 46C334.992 45.6 335.306 44.9867 335.306 44.16C335.306 43.4533 335.072 42.8867 334.606 42.46C334.152 42.0333 333.499 41.82 332.646 41.82C331.819 41.82 331.152 42.0333 330.646 42.46C330.139 42.8867 329.839 43.46 329.746 44.18H327.966ZM349.875 45.54H347.575V55H345.755V45.54H344.335V44.04H345.755V43.26C345.755 42.0333 346.068 41.14 346.695 40.58C347.335 40.0067 348.355 39.72 349.755 39.72V41.24C348.955 41.24 348.388 41.4 348.055 41.72C347.735 42.0267 347.575 42.54 347.575 43.26V44.04H349.875V45.54ZM356.777 55.18C355.75 55.18 354.817 54.9467 353.977 54.48C353.15 54.0133 352.497 53.3533 352.017 52.5C351.55 51.6333 351.317 50.6333 351.317 49.5C351.317 48.38 351.557 47.3933 352.037 46.54C352.53 45.6733 353.197 45.0133 354.037 44.56C354.877 44.0933 355.817 43.86 356.857 43.86C357.897 43.86 358.837 44.0933 359.677 44.56C360.517 45.0133 361.177 45.6667 361.657 46.52C362.15 47.3733 362.397 48.3667 362.397 49.5C362.397 50.6333 362.144 51.6333 361.637 52.5C361.144 53.3533 360.47 54.0133 359.617 54.48C358.764 54.9467 357.817 55.18 356.777 55.18ZM356.777 53.58C357.43 53.58 358.044 53.4267 358.617 53.12C359.19 52.8133 359.65 52.3533 359.997 51.74C360.357 51.1267 360.537 50.38 360.537 49.5C360.537 48.62 360.364 47.8733 360.017 47.26C359.67 46.6467 359.217 46.1933 358.657 45.9C358.097 45.5933 357.49 45.44 356.837 45.44C356.17 45.44 355.557 45.5933 354.997 45.9C354.45 46.1933 354.01 46.6467 353.677 47.26C353.344 47.8733 353.177 48.62 353.177 49.5C353.177 50.3933 353.337 51.1467 353.657 51.76C353.99 52.3733 354.43 52.8333 354.977 53.14C355.524 53.4333 356.124 53.58 356.777 53.58ZM366.61 45.82C366.93 45.1933 367.383 44.7067 367.97 44.36C368.57 44.0133 369.297 43.84 370.15 43.84V45.72H369.67C367.63 45.72 366.61 46.8267 366.61 49.04V55H364.79V44.04H366.61V45.82ZM381.663 53.32L385.063 44.04H387.003L382.703 55H380.583L376.283 44.04H378.243L381.663 53.32ZM398.794 49.1C398.794 49.4467 398.774 49.8133 398.734 50.2H389.974C390.041 51.28 390.407 52.1267 391.074 52.74C391.754 53.34 392.574 53.64 393.534 53.64C394.321 53.64 394.974 53.46 395.494 53.1C396.027 52.7267 396.401 52.2333 396.614 51.62H398.574C398.281 52.6733 397.694 53.5333 396.814 54.2C395.934 54.8533 394.841 55.18 393.534 55.18C392.494 55.18 391.561 54.9467 390.734 54.48C389.921 54.0133 389.281 53.3533 388.814 52.5C388.347 51.6333 388.114 50.6333 388.114 49.5C388.114 48.3667 388.341 47.3733 388.794 46.52C389.247 45.6667 389.881 45.0133 390.694 44.56C391.521 44.0933 392.467 43.86 393.534 43.86C394.574 43.86 395.494 44.0867 396.294 44.54C397.094 44.9933 397.707 45.62 398.134 46.42C398.574 47.2067 398.794 48.1 398.794 49.1ZM396.914 48.72C396.914 48.0267 396.761 47.4333 396.454 46.94C396.147 46.4333 395.727 46.0533 395.194 45.8C394.674 45.5333 394.094 45.4 393.454 45.4C392.534 45.4 391.747 45.6933 391.094 46.28C390.454 46.8667 390.087 47.68 389.994 48.72H396.914ZM403.016 45.82C403.336 45.1933 403.79 44.7067 404.376 44.36C404.976 44.0133 405.703 43.84 406.556 43.84V45.72H406.076C404.036 45.72 403.016 46.8267 403.016 49.04V55H401.196V44.04H403.016V45.82ZM409.597 42.26C409.251 42.26 408.957 42.14 408.717 41.9C408.477 41.66 408.357 41.3667 408.357 41.02C408.357 40.6733 408.477 40.38 408.717 40.14C408.957 39.9 409.251 39.78 409.597 39.78C409.931 39.78 410.211 39.9 410.437 40.14C410.677 40.38 410.797 40.6733 410.797 41.02C410.797 41.3667 410.677 41.66 410.437 41.9C410.211 42.14 409.931 42.26 409.597 42.26ZM410.477 44.04V55H408.657V44.04H410.477ZM418.039 45.54H415.739V55H413.919V45.54H412.499V44.04H413.919V43.26C413.919 42.0333 414.232 41.14 414.859 40.58C415.499 40.0067 416.519 39.72 417.919 39.72V41.24C417.119 41.24 416.552 41.4 416.219 41.72C415.899 42.0267 415.739 42.54 415.739 43.26V44.04H418.039V45.54ZM421.101 42.26C420.754 42.26 420.461 42.14 420.221 41.9C419.981 41.66 419.861 41.3667 419.861 41.02C419.861 40.6733 419.981 40.38 420.221 40.14C420.461 39.9 420.754 39.78 421.101 39.78C421.434 39.78 421.714 39.9 421.941 40.14C422.181 40.38 422.301 40.6733 422.301 41.02C422.301 41.3667 422.181 41.66 421.941 41.9C421.714 42.14 421.434 42.26 421.101 42.26ZM421.981 44.04V55H420.161V44.04H421.981ZM424.403 49.5C424.403 48.3667 424.63 47.38 425.083 46.54C425.536 45.6867 426.163 45.0267 426.963 44.56C427.776 44.0933 428.703 43.86 429.743 43.86C431.09 43.86 432.196 44.1867 433.063 44.84C433.943 45.4933 434.523 46.4 434.803 47.56H432.843C432.656 46.8933 432.29 46.3667 431.743 45.98C431.21 45.5933 430.543 45.4 429.743 45.4C428.703 45.4 427.863 45.76 427.223 46.48C426.583 47.1867 426.263 48.1933 426.263 49.5C426.263 50.82 426.583 51.84 427.223 52.56C427.863 53.28 428.703 53.64 429.743 53.64C430.543 53.64 431.21 53.4533 431.743 53.08C432.276 52.7067 432.643 52.1733 432.843 51.48H434.803C434.51 52.6 433.923 53.5 433.043 54.18C432.163 54.8467 431.063 55.18 429.743 55.18C428.703 55.18 427.776 54.9467 426.963 54.48C426.163 54.0133 425.536 53.3533 425.083 52.5C424.63 51.6467 424.403 50.6467 424.403 49.5ZM436.551 49.48C436.551 48.36 436.778 47.38 437.231 46.54C437.685 45.6867 438.305 45.0267 439.091 44.56C439.891 44.0933 440.778 43.86 441.751 43.86C442.711 43.86 443.545 44.0667 444.251 44.48C444.958 44.8933 445.485 45.4133 445.831 46.04V44.04H447.671V55H445.831V52.96C445.471 53.6 444.931 54.1333 444.211 54.56C443.505 54.9733 442.678 55.18 441.731 55.18C440.758 55.18 439.878 54.94 439.091 54.46C438.305 53.98 437.685 53.3067 437.231 52.44C436.778 51.5733 436.551 50.5867 436.551 49.48ZM445.831 49.5C445.831 48.6733 445.665 47.9533 445.331 47.34C444.998 46.7267 444.545 46.26 443.971 45.94C443.411 45.6067 442.791 45.44 442.111 45.44C441.431 45.44 440.811 45.6 440.251 45.92C439.691 46.24 439.245 46.7067 438.911 47.32C438.578 47.9333 438.411 48.6533 438.411 49.48C438.411 50.32 438.578 51.0533 438.911 51.68C439.245 52.2933 439.691 52.7667 440.251 53.1C440.811 53.42 441.431 53.58 442.111 53.58C442.791 53.58 443.411 53.42 443.971 53.1C444.545 52.7667 444.998 52.2933 445.331 51.68C445.665 51.0533 445.831 50.3267 445.831 49.5ZM452.967 45.54V52C452.967 52.5333 453.08 52.9133 453.307 53.14C453.534 53.3533 453.927 53.46 454.487 53.46H455.827V55H454.187C453.174 55 452.414 54.7667 451.907 54.3C451.4 53.8333 451.147 53.0667 451.147 52V45.54H449.727V44.04H451.147V41.28H452.967V44.04H455.827V45.54H452.967ZM458.972 42.26C458.626 42.26 458.332 42.14 458.092 41.9C457.852 41.66 457.732 41.3667 457.732 41.02C457.732 40.6733 457.852 40.38 458.092 40.14C458.332 39.9 458.626 39.78 458.972 39.78C459.306 39.78 459.586 39.9 459.812 40.14C460.052 40.38 460.172 40.6733 460.172 41.02C460.172 41.3667 460.052 41.66 459.812 41.9C459.586 42.14 459.306 42.26 458.972 42.26ZM459.852 44.04V55H458.032V44.04H459.852ZM467.734 55.18C466.707 55.18 465.774 54.9467 464.934 54.48C464.107 54.0133 463.454 53.3533 462.974 52.5C462.507 51.6333 462.274 50.6333 462.274 49.5C462.274 48.38 462.514 47.3933 462.994 46.54C463.487 45.6733 464.154 45.0133 464.994 44.56C465.834 44.0933 466.774 43.86 467.814 43.86C468.854 43.86 469.794 44.0933 470.634 44.56C471.474 45.0133 472.134 45.6667 472.614 46.52C473.107 47.3733 473.354 48.3667 473.354 49.5C473.354 50.6333 473.101 51.6333 472.594 52.5C472.101 53.3533 471.427 54.0133 470.574 54.48C469.721 54.9467 468.774 55.18 467.734 55.18ZM467.734 53.58C468.387 53.58 469.001 53.4267 469.574 53.12C470.147 52.8133 470.607 52.3533 470.954 51.74C471.314 51.1267 471.494 50.38 471.494 49.5C471.494 48.62 471.321 47.8733 470.974 47.26C470.627 46.6467 470.174 46.1933 469.614 45.9C469.054 45.5933 468.447 45.44 467.794 45.44C467.127 45.44 466.514 45.5933 465.954 45.9C465.407 46.1933 464.967 46.6467 464.634 47.26C464.301 47.8733 464.134 48.62 464.134 49.5C464.134 50.3933 464.294 51.1467 464.614 51.76C464.947 52.3733 465.387 52.8333 465.934 53.14C466.481 53.4333 467.081 53.58 467.734 53.58ZM481.087 43.84C482.42 43.84 483.5 44.2467 484.327 45.06C485.154 45.86 485.567 47.02 485.567 48.54V55H483.767V48.8C483.767 47.7067 483.494 46.8733 482.947 46.3C482.4 45.7133 481.654 45.42 480.707 45.42C479.747 45.42 478.98 45.72 478.407 46.32C477.847 46.92 477.567 47.7933 477.567 48.94V55H475.747V44.04H477.567V45.6C477.927 45.04 478.414 44.6067 479.027 44.3C479.654 43.9933 480.34 43.84 481.087 43.84Z" fill="#282828"/>
<path d="M1.056 14.736C1.056 12.5173 1.536 10.544 2.496 8.816C3.456 7.06667 4.78933 5.712 6.496 4.752C8.224 3.77067 10.176 3.28 12.352 3.28C15.0187 3.28 17.3013 3.984 19.2 5.392C21.0987 6.8 22.368 8.72 23.008 11.152H16.992C16.544 10.2133 15.904 9.49867 15.072 9.008C14.2613 8.51733 13.3333 8.272 12.288 8.272C10.6027 8.272 9.23733 8.85867 8.192 10.032C7.14667 11.2053 6.624 12.7733 6.624 14.736C6.624 16.6987 7.14667 18.2667 8.192 19.44C9.23733 20.6133 10.6027 21.2 12.288 21.2C13.3333 21.2 14.2613 20.9547 15.072 20.464C15.904 19.9733 16.544 19.2587 16.992 18.32H23.008C22.368 20.752 21.0987 22.672 19.2 24.08C17.3013 25.4667 15.0187 26.16 12.352 26.16C10.176 26.16 8.224 25.68 6.496 24.72C4.78933 23.7387 3.456 22.384 2.496 20.656C1.536 18.928 1.056 16.9547 1.056 14.736ZM34.487 26.256C32.7377 26.256 31.159 25.8827 29.751 25.136C28.3643 24.3893 27.2657 23.3227 26.455 21.936C25.6657 20.5493 25.271 18.928 25.271 17.072C25.271 15.2373 25.6763 13.6267 26.487 12.24C27.2977 10.832 28.407 9.75467 29.815 9.008C31.223 8.26133 32.8017 7.888 34.551 7.888C36.3003 7.888 37.879 8.26133 39.287 9.008C40.695 9.75467 41.8043 10.832 42.615 12.24C43.4257 13.6267 43.831 15.2373 43.831 17.072C43.831 18.9067 43.415 20.528 42.583 21.936C41.7723 23.3227 40.6523 24.3893 39.223 25.136C37.815 25.8827 36.2363 26.256 34.487 26.256ZM34.487 21.52C35.5323 21.52 36.4177 21.136 37.143 20.368C37.8897 19.6 38.263 18.5013 38.263 17.072C38.263 15.6427 37.9003 14.544 37.175 13.776C36.471 13.008 35.5963 12.624 34.551 12.624C33.4843 12.624 32.599 13.008 31.895 13.776C31.191 14.5227 30.839 15.6213 30.839 17.072C30.839 18.5013 31.1803 19.6 31.863 20.368C32.567 21.136 33.4417 21.52 34.487 21.52ZM57.614 7.952C59.7047 7.952 61.3687 8.63467 62.606 10C63.8647 11.344 64.494 13.2 64.494 15.568V26H59.054V16.304C59.054 15.1093 58.7447 14.1813 58.126 13.52C57.5073 12.8587 56.6753 12.528 55.63 12.528C54.5847 12.528 53.7527 12.8587 53.134 13.52C52.5153 14.1813 52.206 15.1093 52.206 16.304V26H46.734V8.144H52.206V10.512C52.7607 9.72267 53.5073 9.104 54.446 8.656C55.3847 8.18667 56.4407 7.952 57.614 7.952ZM79.1765 7.952C81.2672 7.952 82.9312 8.63467 84.1685 10C85.4272 11.344 86.0565 13.2 86.0565 15.568V26H80.6165V16.304C80.6165 15.1093 80.3072 14.1813 79.6885 13.52C79.0698 12.8587 78.2378 12.528 77.1925 12.528C76.1472 12.528 75.3152 12.8587 74.6965 13.52C74.0778 14.1813 73.7685 15.1093 73.7685 16.304V26H68.2965V8.144H73.7685V10.512C74.3232 9.72267 75.0698 9.104 76.0085 8.656C76.9472 8.18667 78.0032 7.952 79.1765 7.952ZM106.691 16.784C106.691 17.296 106.659 17.8293 106.595 18.384H94.211C94.2963 19.4933 94.6483 20.3467 95.267 20.944C95.907 21.52 96.6857 21.808 97.603 21.808C98.9683 21.808 99.9177 21.232 100.451 20.08H106.275C105.976 21.2533 105.432 22.3093 104.643 23.248C103.875 24.1867 102.904 24.9227 101.731 25.456C100.558 25.9893 99.2457 26.256 97.795 26.256C96.0457 26.256 94.4883 25.8827 93.123 25.136C91.7577 24.3893 90.691 23.3227 89.923 21.936C89.155 20.5493 88.771 18.928 88.771 17.072C88.771 15.216 89.1443 13.5947 89.891 12.208C90.659 10.8213 91.7257 9.75467 93.091 9.008C94.4563 8.26133 96.0243 7.888 97.795 7.888C99.523 7.888 101.059 8.25067 102.403 8.976C103.747 9.70133 104.792 10.736 105.539 12.08C106.307 13.424 106.691 14.992 106.691 16.784ZM101.091 15.344C101.091 14.4053 100.771 13.6587 100.131 13.104C99.491 12.5493 98.691 12.272 97.731 12.272C96.8137 12.272 96.035 12.5387 95.395 13.072C94.7763 13.6053 94.3923 14.3627 94.243 15.344H101.091ZM108.49 17.072C108.49 15.216 108.863 13.5947 109.61 12.208C110.378 10.8213 111.434 9.75467 112.778 9.008C114.143 8.26133 115.7 7.888 117.45 7.888C119.69 7.888 121.556 8.47467 123.05 9.648C124.564 10.8213 125.556 12.4747 126.026 14.608H120.202C119.711 13.2427 118.762 12.56 117.354 12.56C116.351 12.56 115.551 12.9547 114.954 13.744C114.356 14.512 114.058 15.6213 114.058 17.072C114.058 18.5227 114.356 19.6427 114.954 20.432C115.551 21.2 116.351 21.584 117.354 21.584C118.762 21.584 119.711 20.9013 120.202 19.536H126.026C125.556 21.6267 124.564 23.2693 123.05 24.464C121.535 25.6587 119.668 26.256 117.45 26.256C115.7 26.256 114.143 25.8827 112.778 25.136C111.434 24.3893 110.378 23.3227 109.61 21.936C108.863 20.5493 108.49 18.928 108.49 17.072ZM138.905 21.36V26H136.121C134.137 26 132.59 25.52 131.481 24.56C130.371 23.5787 129.817 21.9893 129.817 19.792V12.688H127.641V8.144H129.817V3.792H135.289V8.144H138.873V12.688H135.289V19.856C135.289 20.3893 135.417 20.7733 135.673 21.008C135.929 21.2427 136.355 21.36 136.953 21.36H138.905ZM156.862 26.224C155.219 26.224 153.747 25.9573 152.446 25.424C151.145 24.8907 150.099 24.1013 149.31 23.056C148.542 22.0107 148.137 20.752 148.094 19.28H153.918C154.003 20.112 154.291 20.752 154.782 21.2C155.273 21.6267 155.913 21.84 156.702 21.84C157.513 21.84 158.153 21.6587 158.622 21.296C159.091 20.912 159.326 20.3893 159.326 19.728C159.326 19.1733 159.134 18.7147 158.75 18.352C158.387 17.9893 157.929 17.6907 157.374 17.456C156.841 17.2213 156.073 16.9547 155.07 16.656C153.619 16.208 152.435 15.76 151.518 15.312C150.601 14.864 149.811 14.2027 149.15 13.328C148.489 12.4533 148.158 11.312 148.158 9.904C148.158 7.81333 148.915 6.18133 150.43 5.008C151.945 3.81333 153.918 3.216 156.35 3.216C158.825 3.216 160.819 3.81333 162.334 5.008C163.849 6.18133 164.659 7.824 164.766 9.936H158.846C158.803 9.21067 158.537 8.64533 158.046 8.24C157.555 7.81333 156.926 7.6 156.158 7.6C155.497 7.6 154.963 7.78133 154.558 8.144C154.153 8.48533 153.95 8.98667 153.95 9.648C153.95 10.3733 154.291 10.9387 154.974 11.344C155.657 11.7493 156.723 12.1867 158.174 12.656C159.625 13.1467 160.798 13.616 161.694 14.064C162.611 14.512 163.401 15.1627 164.062 16.016C164.723 16.8693 165.054 17.968 165.054 19.312C165.054 20.592 164.723 21.7547 164.062 22.8C163.422 23.8453 162.483 24.6773 161.246 25.296C160.009 25.9147 158.547 26.224 156.862 26.224ZM176.55 26.256C174.8 26.256 173.222 25.8827 171.814 25.136C170.427 24.3893 169.328 23.3227 168.518 21.936C167.728 20.5493 167.334 18.928 167.334 17.072C167.334 15.2373 167.739 13.6267 168.549 12.24C169.36 10.832 170.47 9.75467 171.878 9.008C173.286 8.26133 174.864 7.888 176.614 7.888C178.363 7.888 179.942 8.26133 181.35 9.008C182.758 9.75467 183.867 10.832 184.678 12.24C185.488 13.6267 185.894 15.2373 185.894 17.072C185.894 18.9067 185.478 20.528 184.646 21.936C183.835 23.3227 182.715 24.3893 181.286 25.136C179.878 25.8827 178.299 26.256 176.55 26.256ZM176.55 21.52C177.595 21.52 178.48 21.136 179.206 20.368C179.952 19.6 180.326 18.5013 180.326 17.072C180.326 15.6427 179.963 14.544 179.238 13.776C178.534 13.008 177.659 12.624 176.614 12.624C175.547 12.624 174.662 13.008 173.958 13.776C173.254 14.5227 172.902 15.6213 172.902 17.072C172.902 18.5013 173.243 19.6 173.926 20.368C174.63 21.136 175.504 21.52 176.55 21.52ZM187.709 17.072C187.709 15.216 188.082 13.5947 188.829 12.208C189.597 10.8213 190.653 9.75467 191.997 9.008C193.362 8.26133 194.919 7.888 196.669 7.888C198.909 7.888 200.775 8.47467 202.269 9.648C203.783 10.8213 204.775 12.4747 205.245 14.608H199.421C198.93 13.2427 197.981 12.56 196.573 12.56C195.57 12.56 194.77 12.9547 194.173 13.744C193.575 14.512 193.277 15.6213 193.277 17.072C193.277 18.5227 193.575 19.6427 194.173 20.432C194.77 21.2 195.57 21.584 196.573 21.584C197.981 21.584 198.93 20.9013 199.421 19.536H205.245C204.775 21.6267 203.783 23.2693 202.269 24.464C200.754 25.6587 198.887 26.256 196.669 26.256C194.919 26.256 193.362 25.8827 191.997 25.136C190.653 24.3893 189.597 23.3227 188.829 21.936C188.082 20.5493 187.709 18.928 187.709 17.072ZM210.924 6.288C209.964 6.288 209.174 6.01067 208.556 5.456C207.958 4.88 207.66 4.176 207.66 3.344C207.66 2.49067 207.958 1.78667 208.556 1.232C209.174 0.655998 209.964 0.367998 210.924 0.367998C211.862 0.367998 212.63 0.655998 213.228 1.232C213.846 1.78667 214.156 2.49067 214.156 3.344C214.156 4.176 213.846 4.88 213.228 5.456C212.63 6.01067 211.862 6.288 210.924 6.288ZM213.644 8.144V26H208.172V8.144H213.644ZM216.521 17.04C216.521 15.2053 216.862 13.5947 217.545 12.208C218.249 10.8213 219.198 9.75467 220.393 9.008C221.588 8.26133 222.921 7.888 224.393 7.888C225.652 7.888 226.75 8.144 227.689 8.656C228.649 9.168 229.385 9.84 229.897 10.672V8.144H235.369V26H229.897V23.472C229.364 24.304 228.617 24.976 227.657 25.488C226.718 26 225.62 26.256 224.361 26.256C222.91 26.256 221.588 25.8827 220.393 25.136C219.198 24.368 218.249 23.2907 217.545 21.904C216.862 20.496 216.521 18.8747 216.521 17.04ZM229.897 17.072C229.897 15.7067 229.513 14.6293 228.745 13.84C227.998 13.0507 227.081 12.656 225.993 12.656C224.905 12.656 223.977 13.0507 223.209 13.84C222.462 14.608 222.089 15.6747 222.089 17.04C222.089 18.4053 222.462 19.4933 223.209 20.304C223.977 21.0933 224.905 21.488 225.993 21.488C227.081 21.488 227.998 21.0933 228.745 20.304C229.513 19.5147 229.897 18.4373 229.897 17.072ZM244.8 2.32V26H239.328V2.32H244.8ZM280.987 3.536V26H275.515V12.528L270.491 26H266.075L261.019 12.496V26H255.547V3.536H262.01L268.315 19.088L274.555 3.536H280.987ZM301.753 16.784C301.753 17.296 301.722 17.8293 301.658 18.384H289.274C289.359 19.4933 289.711 20.3467 290.33 20.944C290.97 21.52 291.748 21.808 292.666 21.808C294.031 21.808 294.98 21.232 295.514 20.08H301.338C301.039 21.2533 300.495 22.3093 299.706 23.248C298.938 24.1867 297.967 24.9227 296.794 25.456C295.62 25.9893 294.308 26.256 292.858 26.256C291.108 26.256 289.551 25.8827 288.186 25.136C286.82 24.3893 285.754 23.3227 284.986 21.936C284.218 20.5493 283.834 18.928 283.834 17.072C283.834 15.216 284.207 13.5947 284.954 12.208C285.722 10.8213 286.788 9.75467 288.154 9.008C289.519 8.26133 291.087 7.888 292.858 7.888C294.586 7.888 296.122 8.25067 297.466 8.976C298.81 9.70133 299.855 10.736 300.602 12.08C301.37 13.424 301.753 14.992 301.753 16.784ZM296.154 15.344C296.154 14.4053 295.834 13.6587 295.194 13.104C294.554 12.5493 293.754 12.272 292.794 12.272C291.876 12.272 291.098 12.5387 290.458 13.072C289.839 13.6053 289.455 14.3627 289.306 15.344H296.154ZM303.552 17.04C303.552 15.2053 303.894 13.5947 304.576 12.208C305.28 10.8213 306.23 9.75467 307.424 9.008C308.619 8.26133 309.952 7.888 311.424 7.888C312.598 7.888 313.664 8.13333 314.624 8.624C315.606 9.11467 316.374 9.776 316.928 10.608V2.32H322.4V26H316.928V23.44C316.416 24.2933 315.68 24.976 314.72 25.488C313.782 26 312.683 26.256 311.424 26.256C309.952 26.256 308.619 25.8827 307.424 25.136C306.23 24.368 305.28 23.2907 304.576 21.904C303.894 20.496 303.552 18.8747 303.552 17.04ZM316.928 17.072C316.928 15.7067 316.544 14.6293 315.776 13.84C315.03 13.0507 314.112 12.656 313.024 12.656C311.936 12.656 311.008 13.0507 310.24 13.84C309.494 14.608 309.12 15.6747 309.12 17.04C309.12 18.4053 309.494 19.4933 310.24 20.304C311.008 21.0933 311.936 21.488 313.024 21.488C314.112 21.488 315.03 21.0933 315.776 20.304C316.544 19.5147 316.928 18.4373 316.928 17.072ZM329.111 6.288C328.151 6.288 327.362 6.01067 326.743 5.456C326.146 4.88 325.847 4.176 325.847 3.344C325.847 2.49067 326.146 1.78667 326.743 1.232C327.362 0.655998 328.151 0.367998 329.111 0.367998C330.05 0.367998 330.818 0.655998 331.415 1.232C332.034 1.78667 332.343 2.49067 332.343 3.344C332.343 4.176 332.034 4.88 331.415 5.456C330.818 6.01067 330.05 6.288 329.111 6.288ZM331.831 8.144V26H326.359V8.144H331.831ZM334.709 17.04C334.709 15.2053 335.05 13.5947 335.733 12.208C336.437 10.8213 337.386 9.75467 338.581 9.008C339.775 8.26133 341.109 7.888 342.581 7.888C343.839 7.888 344.938 8.144 345.877 8.656C346.837 9.168 347.573 9.84 348.085 10.672V8.144H353.557V26H348.085V23.472C347.551 24.304 346.805 24.976 345.845 25.488C344.906 26 343.807 26.256 342.549 26.256C341.098 26.256 339.775 25.8827 338.581 25.136C337.386 24.368 336.437 23.2907 335.733 21.904C335.05 20.496 334.709 18.8747 334.709 17.04ZM348.085 17.072C348.085 15.7067 347.701 14.6293 346.933 13.84C346.186 13.0507 345.269 12.656 344.181 12.656C343.093 12.656 342.165 13.0507 341.397 13.84C340.65 14.608 340.277 15.6747 340.277 17.04C340.277 18.4053 340.65 19.4933 341.397 20.304C342.165 21.0933 343.093 21.488 344.181 21.488C345.269 21.488 346.186 21.0933 346.933 20.304C347.701 19.5147 348.085 18.4373 348.085 17.072ZM383.753 3.536V26H378.281V16.752H369.769V26H364.297V3.536H369.769V12.336H378.281V3.536H383.753ZM386.615 17.04C386.615 15.2053 386.956 13.5947 387.639 12.208C388.343 10.8213 389.292 9.75467 390.487 9.008C391.681 8.26133 393.015 7.888 394.487 7.888C395.745 7.888 396.844 8.144 397.783 8.656C398.743 9.168 399.479 9.84 399.991 10.672V8.144H405.463V26H399.991V23.472C399.457 24.304 398.711 24.976 397.751 25.488C396.812 26 395.713 26.256 394.455 26.256C393.004 26.256 391.681 25.8827 390.487 25.136C389.292 24.368 388.343 23.2907 387.639 21.904C386.956 20.496 386.615 18.8747 386.615 17.04ZM399.991 17.072C399.991 15.7067 399.607 14.6293 398.839 13.84C398.092 13.0507 397.175 12.656 396.087 12.656C394.999 12.656 394.071 13.0507 393.303 13.84C392.556 14.608 392.183 15.6747 392.183 17.04C392.183 18.4053 392.556 19.4933 393.303 20.304C394.071 21.0933 394.999 21.488 396.087 21.488C397.175 21.488 398.092 21.0933 398.839 20.304C399.607 19.5147 399.991 18.4373 399.991 17.072ZM420.302 7.952C422.392 7.952 424.056 8.63467 425.294 10C426.552 11.344 427.182 13.2 427.182 15.568V26H421.742V16.304C421.742 15.1093 421.432 14.1813 420.814 13.52C420.195 12.8587 419.363 12.528 418.318 12.528C417.272 12.528 416.44 12.8587 415.822 13.52C415.203 14.1813 414.894 15.1093 414.894 16.304V26H409.422V8.144H414.894V10.512C415.448 9.72267 416.195 9.104 417.134 8.656C418.072 8.18667 419.128 7.952 420.302 7.952ZM429.896 17.04C429.896 15.2053 430.237 13.5947 430.92 12.208C431.624 10.8213 432.573 9.75467 433.768 9.008C434.963 8.26133 436.296 7.888 437.768 7.888C438.941 7.888 440.008 8.13333 440.968 8.624C441.949 9.11467 442.717 9.776 443.272 10.608V2.32H448.744V26H443.272V23.44C442.76 24.2933 442.024 24.976 441.064 25.488C440.125 26 439.027 26.256 437.768 26.256C436.296 26.256 434.963 25.8827 433.768 25.136C432.573 24.368 431.624 23.2907 430.92 21.904C430.237 20.496 429.896 18.8747 429.896 17.04ZM443.272 17.072C443.272 15.7067 442.888 14.6293 442.12 13.84C441.373 13.0507 440.456 12.656 439.368 12.656C438.28 12.656 437.352 13.0507 436.584 13.84C435.837 14.608 435.464 15.6747 435.464 17.04C435.464 18.4053 435.837 19.4933 436.584 20.304C437.352 21.0933 438.28 21.488 439.368 21.488C440.456 21.488 441.373 21.0933 442.12 20.304C442.888 19.5147 443.272 18.4373 443.272 17.072ZM458.175 2.32V26H452.703V2.32H458.175ZM478.972 16.784C478.972 17.296 478.94 17.8293 478.876 18.384H466.492C466.578 19.4933 466.93 20.3467 467.548 20.944C468.188 21.52 468.967 21.808 469.884 21.808C471.25 21.808 472.199 21.232 472.732 20.08H478.556C478.258 21.2533 477.714 22.3093 476.924 23.248C476.156 24.1867 475.186 24.9227 474.012 25.456C472.839 25.9893 471.527 26.256 470.076 26.256C468.327 26.256 466.77 25.8827 465.404 25.136C464.039 24.3893 462.972 23.3227 462.204 21.936C461.436 20.5493 461.052 18.928 461.052 17.072C461.052 15.216 461.426 13.5947 462.172 12.208C462.94 10.8213 464.007 9.75467 465.372 9.008C466.738 8.26133 468.306 7.888 470.076 7.888C471.804 7.888 473.34 8.25067 474.684 8.976C476.028 9.70133 477.074 10.736 477.82 12.08C478.588 13.424 478.972 14.992 478.972 16.784ZM473.372 15.344C473.372 14.4053 473.052 13.6587 472.412 13.104C471.772 12.5493 470.972 12.272 470.012 12.272C469.095 12.272 468.316 12.5387 467.676 13.072C467.058 13.6053 466.674 14.3627 466.524 15.344H473.372ZM489.123 26.256C487.566 26.256 486.179 25.9893 484.963 25.456C483.747 24.9227 482.787 24.1973 482.083 23.28C481.379 22.3413 480.984 21.296 480.899 20.144H486.307C486.371 20.7627 486.659 21.264 487.171 21.648C487.683 22.032 488.312 22.224 489.059 22.224C489.742 22.224 490.264 22.096 490.627 21.84C491.011 21.5627 491.203 21.2107 491.203 20.784C491.203 20.272 490.936 19.8987 490.403 19.664C489.87 19.408 489.006 19.1307 487.811 18.832C486.531 18.5333 485.464 18.224 484.611 17.904C483.758 17.5627 483.022 17.04 482.403 16.336C481.784 15.6107 481.475 14.64 481.475 13.424C481.475 12.4 481.752 11.472 482.307 10.64C482.883 9.78667 483.715 9.11467 484.803 8.624C485.912 8.13333 487.224 7.888 488.739 7.888C490.979 7.888 492.739 8.44267 494.019 9.552C495.32 10.6613 496.067 12.1333 496.259 13.968H491.203C491.118 13.3493 490.84 12.8587 490.371 12.496C489.923 12.1333 489.326 11.952 488.579 11.952C487.939 11.952 487.448 12.08 487.107 12.336C486.766 12.5707 486.595 12.9013 486.595 13.328C486.595 13.84 486.862 14.224 487.395 14.48C487.95 14.736 488.803 14.992 489.955 15.248C491.278 15.5893 492.355 15.9307 493.187 16.272C494.019 16.592 494.744 17.1253 495.363 17.872C496.003 18.5973 496.334 19.5787 496.355 20.816C496.355 21.8613 496.056 22.8 495.459 23.632C494.883 24.4427 494.04 25.0827 492.931 25.552C491.843 26.0213 490.574 26.256 489.123 26.256Z" fill="#282828"/>
<defs>
<clipPath id="clip0_22_1208">
<rect width="339" height="317" fill="white" transform="translate(72 101)"/>
</clipPath>
</defs>
</svg>
